<svg width="406" height="413" viewBox="0 0 406 413" fill="none" xmlns="http://www.w3.org/2000/svg">
<g filter="url(#filter0_d)">
<rect x="10" y="6.05603" width="387" height="125" rx="10" fill="white"/>
</g>
<path d="M43.9171 34.856H45.9971V46.056H43.9171V34.856ZM51.2985 36.616H47.5865V34.856H57.0905V36.616H53.3785V46.056H51.2985V36.616ZM65.9795 46.056L63.6915 42.776C63.5955 42.7867 63.4515 42.792 63.2595 42.792H60.7315V46.056H58.6515V34.856H63.2595C64.2301 34.856 65.0728 35.016 65.7875 35.336C66.5128 35.656 67.0675 36.1147 67.4515 36.712C67.8355 37.3094 68.0275 38.0187 68.0275 38.84C68.0275 39.6827 67.8195 40.408 67.4035 41.016C66.9981 41.624 66.4115 42.0774 65.6435 42.376L68.2195 46.056H65.9795ZM65.9315 38.84C65.9315 38.1254 65.6968 37.576 65.2275 37.192C64.7581 36.808 64.0701 36.616 63.1635 36.616H60.7315V41.08H63.1635C64.0701 41.08 64.7581 40.888 65.2275 40.504C65.6968 40.1094 65.9315 39.5547 65.9315 38.84ZM78.2485 46.216C77.3845 46.216 76.5471 46.0934 75.7365 45.848C74.9365 45.6027 74.3018 45.2774 73.8325 44.872L74.5525 43.256C75.0111 43.6187 75.5711 43.9174 76.2325 44.152C76.9045 44.376 77.5765 44.488 78.2485 44.488C79.0805 44.488 79.6991 44.3547 80.1045 44.088C80.5205 43.8214 80.7285 43.4694 80.7285 43.032C80.7285 42.712 80.6111 42.4507 80.3765 42.248C80.1525 42.0347 79.8645 41.8694 79.5125 41.752C79.1605 41.6347 78.6805 41.5014 78.0725 41.352C77.2191 41.1494 76.5258 40.9467 75.9925 40.744C75.4698 40.5414 75.0165 40.2267 74.6325 39.8C74.2591 39.3627 74.0725 38.776 74.0725 38.04C74.0725 37.4214 74.2378 36.8614 74.5685 36.36C74.9098 35.848 75.4165 35.4427 76.0885 35.144C76.7711 34.8454 77.6031 34.696 78.5845 34.696C79.2671 34.696 79.9391 34.7814 80.6005 34.952C81.2618 35.1227 81.8325 35.368 82.3125 35.688L81.6565 37.304C81.1658 37.016 80.6538 36.7974 80.1205 36.648C79.5871 36.4987 79.0698 36.424 78.5685 36.424C77.7471 36.424 77.1338 36.5627 76.7285 36.84C76.3338 37.1174 76.1365 37.4854 76.1365 37.944C76.1365 38.264 76.2485 38.5254 76.4725 38.728C76.7071 38.9307 77.0005 39.0907 77.3525 39.208C77.7045 39.3254 78.1845 39.4587 78.7925 39.608C79.6245 39.8 80.3071 40.0027 80.8405 40.216C81.3738 40.4187 81.8271 40.7334 82.2005 41.16C82.5845 41.5867 82.7765 42.1627 82.7765 42.888C82.7765 43.5067 82.6058 44.0667 82.2645 44.568C81.9338 45.0694 81.4271 45.4694 80.7445 45.768C80.0618 46.0667 79.2298 46.216 78.2485 46.216ZM92.919 37.512V46.056H91.015V44.968C90.695 45.352 90.295 45.6507 89.815 45.864C89.335 46.0667 88.8176 46.168 88.263 46.168C87.1216 46.168 86.2203 45.8534 85.559 45.224C84.9083 44.584 84.583 43.64 84.583 42.392V37.512H86.583V42.12C86.583 42.888 86.7536 43.464 87.095 43.848C87.447 44.2214 87.943 44.408 88.583 44.408C89.2976 44.408 89.863 44.1894 90.279 43.752C90.7056 43.304 90.919 42.664 90.919 41.832V37.512H92.919ZM106.322 37.416C107.399 37.416 108.252 37.7307 108.882 38.36C109.511 38.9787 109.826 39.912 109.826 41.16V46.056H107.826V41.416C107.826 40.6694 107.66 40.1094 107.33 39.736C106.999 39.352 106.524 39.16 105.906 39.16C105.234 39.16 104.695 39.384 104.29 39.832C103.884 40.2694 103.682 40.8987 103.682 41.72V46.056H101.682V41.416C101.682 40.6694 101.516 40.1094 101.186 39.736C100.855 39.352 100.38 39.16 99.7616 39.16C99.0789 39.16 98.5349 39.3787 98.1296 39.816C97.7349 40.2534 97.5376 40.888 97.5376 41.72V46.056H95.5376V37.512H97.4416V38.6C97.7616 38.216 98.1616 37.9227 98.6416 37.72C99.1216 37.5174 99.6549 37.416 100.242 37.416C100.882 37.416 101.447 37.5387 101.938 37.784C102.439 38.0187 102.834 38.3707 103.122 38.84C103.474 38.392 103.927 38.0454 104.482 37.8C105.036 37.544 105.65 37.416 106.322 37.416ZM123.165 37.416C124.243 37.416 125.096 37.7307 125.725 38.36C126.355 38.9787 126.669 39.912 126.669 41.16V46.056H124.669V41.416C124.669 40.6694 124.504 40.1094 124.173 39.736C123.843 39.352 123.368 39.16 122.749 39.16C122.077 39.16 121.539 39.384 121.133 39.832C120.728 40.2694 120.525 40.8987 120.525 41.72V46.056H118.525V41.416C118.525 40.6694 118.36 40.1094 118.029 39.736C117.699 39.352 117.224 39.16 116.605 39.16C115.923 39.16 115.379 39.3787 114.973 39.816C114.579 40.2534 114.381 40.888 114.381 41.72V46.056H112.381V37.512H114.285V38.6C114.605 38.216 115.005 37.9227 115.485 37.72C115.965 37.5174 116.499 37.416 117.085 37.416C117.725 37.416 118.291 37.5387 118.781 37.784C119.283 38.0187 119.677 38.3707 119.965 38.84C120.317 38.392 120.771 38.0454 121.325 37.8C121.88 37.544 122.493 37.416 123.165 37.416ZM132.489 37.416C133.748 37.416 134.708 37.72 135.369 38.328C136.041 38.9254 136.377 39.832 136.377 41.048V46.056H134.489V45.016C134.244 45.3894 133.892 45.6774 133.433 45.88C132.985 46.072 132.441 46.168 131.801 46.168C131.161 46.168 130.601 46.0614 130.121 45.848C129.641 45.624 129.268 45.32 129.001 44.936C128.745 44.5414 128.617 44.0987 128.617 43.608C128.617 42.84 128.9 42.2267 129.465 41.768C130.041 41.2987 130.942 41.064 132.169 41.064H134.377V40.936C134.377 40.3387 134.196 39.88 133.833 39.56C133.481 39.24 132.953 39.08 132.249 39.08C131.769 39.08 131.294 39.1547 130.825 39.304C130.366 39.4534 129.977 39.6614 129.657 39.928L128.873 38.472C129.321 38.1307 129.86 37.8694 130.489 37.688C131.118 37.5067 131.785 37.416 132.489 37.416ZM132.217 44.712C132.718 44.712 133.161 44.6 133.545 44.376C133.94 44.1414 134.217 43.8107 134.377 43.384V42.392H132.313C131.161 42.392 130.585 42.7707 130.585 43.528C130.585 43.8907 130.729 44.1787 131.017 44.392C131.305 44.6054 131.705 44.712 132.217 44.712ZM140.848 38.76C141.424 37.864 142.437 37.416 143.888 37.416V39.32C143.717 39.288 143.563 39.272 143.424 39.272C142.645 39.272 142.037 39.5014 141.6 39.96C141.163 40.408 140.944 41.0587 140.944 41.912V46.056H138.944V37.512H140.848V38.76ZM153.897 37.512L149.897 46.744C149.524 47.672 149.07 48.3227 148.537 48.696C148.004 49.08 147.358 49.272 146.601 49.272C146.174 49.272 145.753 49.2027 145.337 49.064C144.921 48.9254 144.58 48.7334 144.313 48.488L145.113 47.016C145.305 47.1974 145.529 47.3414 145.785 47.448C146.052 47.5547 146.318 47.608 146.585 47.608C146.937 47.608 147.225 47.5174 147.449 47.336C147.684 47.1547 147.897 46.8507 148.089 46.424L148.233 46.088L144.505 37.512H146.585L149.273 43.832L151.977 37.512H153.897Z" fill="#263238"/>
<path d="M43.6069 72.7966H45.2579V81.6866H43.6069V72.7966ZM49.4659 74.1936H46.5195V72.7966H54.0633V74.1936H51.1169V81.6866H49.4659V74.1936ZM61.1189 81.6866L59.3028 79.0831C59.2266 79.0916 59.1123 79.0958 58.9599 79.0958H56.9533V81.6866H55.3023V72.7966H58.9599C59.7304 72.7966 60.3992 72.9236 60.9665 73.1776C61.5422 73.4316 61.9825 73.7957 62.2873 74.2698C62.5921 74.744 62.7445 75.307 62.7445 75.9589C62.7445 76.6278 62.5794 77.2035 62.2492 77.6861C61.9275 78.1687 61.4618 78.5286 60.8522 78.7656L62.8969 81.6866H61.1189ZM61.0808 75.9589C61.0808 75.3917 60.8945 74.9556 60.522 74.6508C60.1495 74.346 59.6034 74.1936 58.8837 74.1936H56.9533V77.7369H58.8837C59.6034 77.7369 60.1495 77.5845 60.522 77.2797C60.8945 76.9665 61.0808 76.5262 61.0808 75.9589ZM71.2511 76.4669C72.0724 76.5685 72.6989 76.8479 73.1307 77.3051C73.5625 77.7623 73.7784 78.3338 73.7784 79.0196C73.7784 79.5361 73.6472 80.006 73.3847 80.4293C73.1222 80.8527 72.7243 81.1913 72.1909 81.4453C71.666 81.6909 71.0225 81.8136 70.2605 81.8136C69.6255 81.8136 69.0117 81.7247 68.419 81.5469C67.8348 81.3607 67.3353 81.1067 66.9204 80.7849L67.6316 79.5022C67.9533 79.7732 68.3428 79.9891 68.8 80.1499C69.2657 80.3023 69.744 80.3785 70.2351 80.3785C70.8193 80.3785 71.2765 80.26 71.6067 80.0229C71.9454 79.7774 72.1147 79.4472 72.1147 79.0323C72.1147 78.6175 71.9538 78.2957 71.6321 78.0671C71.3188 77.8301 70.8362 77.7115 70.1843 77.7115H69.3715V76.5812L71.3908 74.1809H67.3522V72.7966H73.4101V73.9015L71.2511 76.4669Z" fill="#455A64"/>
<path d="M43.3116 94.6968H44.1673V100.687H43.3116V94.6968ZM47.15 95.4412H45.0963V94.6968H50.0508V95.4412H47.9971V100.687H47.15V95.4412ZM54.9874 100.687L53.6953 98.8469C53.5356 98.8583 53.4101 98.864 53.3188 98.864H51.8384V100.687H50.9827V94.6968H53.3188C54.0946 94.6968 54.705 94.8822 55.15 95.253C55.5949 95.6238 55.8174 96.1343 55.8174 96.7847C55.8174 97.2468 55.7033 97.6404 55.4751 97.9655C55.247 98.2907 54.9218 98.5274 54.4996 98.6758L55.9201 100.687H54.9874ZM53.2931 98.1367C53.8351 98.1367 54.2486 98.0197 54.5339 97.7858C54.8191 97.5519 54.9617 97.2182 54.9617 96.7847C54.9617 96.3511 54.8191 96.0203 54.5339 95.7921C54.2486 95.5582 53.8351 95.4412 53.2931 95.4412H51.8384V98.1367H53.2931ZM60.3536 95.4412V97.5291H63.3571V98.265H60.3536V100.687H59.4979V94.6968H63.725V95.4412H60.3536ZM66.6101 100.738C66.1595 100.738 65.7544 100.638 65.3951 100.438C65.0357 100.239 64.7533 99.965 64.5479 99.617C64.3483 99.2633 64.2484 98.864 64.2484 98.4191C64.2484 97.9741 64.3483 97.5776 64.5479 97.2296C64.7533 96.8759 65.0357 96.6021 65.3951 96.4082C65.7544 96.2085 66.1595 96.1087 66.6101 96.1087C67.0608 96.1087 67.463 96.2085 67.8167 96.4082C68.1761 96.6021 68.4556 96.8759 68.6553 97.2296C68.8606 97.5776 68.9633 97.9741 68.9633 98.4191C68.9633 98.864 68.8606 99.2633 68.6553 99.617C68.4556 99.965 68.1761 100.239 67.8167 100.438C67.463 100.638 67.0608 100.738 66.6101 100.738ZM66.6101 100.019C66.9011 100.019 67.1606 99.9536 67.3888 99.8224C67.6227 99.6855 67.8053 99.4972 67.9365 99.2576C68.0677 99.0123 68.1333 98.7328 68.1333 98.4191C68.1333 98.1053 68.0677 97.8286 67.9365 97.589C67.8053 97.3437 67.6227 97.1555 67.3888 97.0243C67.1606 96.8931 66.9011 96.8275 66.6101 96.8275C66.3192 96.8275 66.0568 96.8931 65.8229 97.0243C65.5947 97.1555 65.4122 97.3437 65.2753 97.589C65.1441 97.8286 65.0784 98.1053 65.0784 98.4191C65.0784 98.7328 65.1441 99.0123 65.2753 99.2576C65.4122 99.4972 65.5947 99.6855 65.8229 99.8224C66.0568 99.9536 66.3192 100.019 66.6101 100.019ZM70.8866 96.913C71.0292 96.6506 71.2403 96.451 71.5198 96.314C71.7994 96.1771 72.1388 96.1087 72.5381 96.1087V96.9045C72.4925 96.8988 72.4297 96.8959 72.3499 96.8959C71.9049 96.8959 71.5541 97.03 71.2973 97.2981C71.0463 97.5605 70.9208 97.937 70.9208 98.4276V100.687H70.0994V96.1515H70.8866V96.913ZM79.2238 96.1087C79.7943 96.1087 80.245 96.2741 80.5758 96.605C80.9124 96.9358 81.0807 97.4264 81.0807 98.0768V100.687H80.2592V98.1709C80.2592 97.7316 80.1565 97.4008 79.9512 97.1783C79.7515 96.9558 79.4634 96.8446 79.0869 96.8446C78.6705 96.8446 78.3396 96.9758 78.0943 97.2382C77.849 97.4949 77.7264 97.8657 77.7264 98.3506V100.687H76.9049V98.1709C76.9049 97.7316 76.8022 97.4008 76.5968 97.1783C76.3972 96.9558 76.1091 96.8446 75.7326 96.8446C75.3162 96.8446 74.9853 96.9758 74.74 97.2382C74.4947 97.4949 74.372 97.8657 74.372 98.3506V100.687H73.5506V96.1515H74.3378V96.8275C74.5032 96.5936 74.72 96.4167 74.9881 96.2969C75.2563 96.1714 75.5614 96.1087 75.9037 96.1087C76.2574 96.1087 76.5712 96.18 76.845 96.3226C77.1188 96.4652 77.3299 96.6734 77.4782 96.9473C77.6493 96.6848 77.8861 96.4795 78.1884 96.3312C78.4965 96.1828 78.8416 96.1087 79.2238 96.1087Z" fill="#546E7A"/>
<path d="M134.756 76.4669C135.578 76.5685 136.204 76.8479 136.636 77.3051C137.068 77.7623 137.284 78.3338 137.284 79.0196C137.284 79.5361 137.153 80.006 136.89 80.4293C136.628 80.8527 136.23 81.1913 135.696 81.4453C135.171 81.6909 134.528 81.8136 133.766 81.8136C133.131 81.8136 132.517 81.7247 131.924 81.5469C131.34 81.3607 130.841 81.1067 130.426 80.7849L131.137 79.5022C131.459 79.7732 131.848 79.9891 132.305 80.1499C132.771 80.3023 133.249 80.3785 133.74 80.3785C134.325 80.3785 134.782 80.26 135.112 80.0229C135.451 79.7774 135.62 79.4472 135.62 79.0323C135.62 78.6175 135.459 78.2957 135.137 78.0671C134.824 77.8301 134.342 77.7115 133.69 77.7115H132.877V76.5812L134.896 74.1809H130.858V72.7966H136.915V73.9015L134.756 76.4669ZM142.072 81.8136C141.361 81.8136 140.726 81.6358 140.167 81.2802C139.608 80.9162 139.168 80.3912 138.846 79.7054C138.525 79.0112 138.364 78.1899 138.364 77.2416C138.364 76.2934 138.525 75.4763 138.846 74.7905C139.168 74.0963 139.608 73.5713 140.167 73.2157C140.726 72.8517 141.361 72.6696 142.072 72.6696C142.783 72.6696 143.418 72.8517 143.977 73.2157C144.544 73.5713 144.989 74.0963 145.311 74.7905C145.632 75.4763 145.793 76.2934 145.793 77.2416C145.793 78.1899 145.632 79.0112 145.311 79.7054C144.989 80.3912 144.544 80.9162 143.977 81.2802C143.418 81.6358 142.783 81.8136 142.072 81.8136ZM142.072 80.3785C142.707 80.3785 143.207 80.1161 143.571 79.5911C143.943 79.0662 144.129 78.283 144.129 77.2416C144.129 76.2002 143.943 75.4171 143.571 74.8921C143.207 74.3672 142.707 74.1047 142.072 74.1047C141.446 74.1047 140.946 74.3672 140.573 74.8921C140.209 75.4171 140.027 76.2002 140.027 77.2416C140.027 78.283 140.209 79.0662 140.573 79.5911C140.946 80.1161 141.446 80.3785 142.072 80.3785ZM153.81 81.8136C153.124 81.8136 152.459 81.7163 151.816 81.5215C151.181 81.3268 150.677 81.0686 150.304 80.7468L150.876 79.4641C151.24 79.752 151.685 79.9891 152.209 80.1753C152.743 80.3531 153.276 80.442 153.81 80.442C154.47 80.442 154.961 80.3362 155.283 80.1245C155.613 79.9129 155.778 79.6335 155.778 79.2863C155.778 79.0323 155.685 78.8249 155.499 78.664C155.321 78.4947 155.092 78.3635 154.813 78.2703C154.534 78.1772 154.153 78.0714 153.67 77.9528C152.993 77.792 152.442 77.6311 152.019 77.4702C151.604 77.3094 151.244 77.0596 150.939 76.7209C150.643 76.3738 150.495 75.9081 150.495 75.3239C150.495 74.8329 150.626 74.3884 150.889 73.9904C151.16 73.584 151.562 73.2623 152.095 73.0252C152.637 72.7882 153.297 72.6696 154.076 72.6696C154.618 72.6696 155.152 72.7374 155.677 72.8728C156.201 73.0083 156.654 73.203 157.035 73.457L156.515 74.7397C156.125 74.5111 155.719 74.3376 155.296 74.219C154.872 74.1005 154.462 74.0412 154.064 74.0412C153.412 74.0412 152.925 74.1513 152.603 74.3714C152.29 74.5916 152.133 74.8837 152.133 75.2477C152.133 75.5017 152.222 75.7092 152.4 75.87C152.586 76.0309 152.819 76.1579 153.098 76.251C153.378 76.3442 153.759 76.45 154.241 76.5685C154.902 76.7209 155.444 76.8818 155.867 77.0511C156.29 77.212 156.65 77.4618 156.947 77.8004C157.251 78.1391 157.404 78.5963 157.404 79.172C157.404 79.6631 157.268 80.1076 156.997 80.5055C156.735 80.9035 156.333 81.221 155.791 81.458C155.249 81.6951 154.589 81.8136 153.81 81.8136ZM165.264 78.3338C165.264 78.4439 165.255 78.6005 165.238 78.8037H159.917C160.01 79.3033 160.252 79.7012 160.641 79.9975C161.039 80.2854 161.53 80.4293 162.114 80.4293C162.859 80.4293 163.473 80.1838 163.956 79.6927L164.807 80.6706C164.502 81.0347 164.117 81.3099 163.651 81.4961C163.185 81.6824 162.66 81.7755 162.076 81.7755C161.331 81.7755 160.675 81.6274 160.108 81.331C159.54 81.0347 159.1 80.6241 158.787 80.0991C158.482 79.5657 158.33 78.9646 158.33 78.2957C158.33 77.6353 158.478 77.0427 158.774 76.5177C159.079 75.9843 159.498 75.5695 160.031 75.2731C160.565 74.9768 161.166 74.8286 161.835 74.8286C162.495 74.8286 163.084 74.9768 163.6 75.2731C164.125 75.561 164.532 75.9716 164.819 76.505C165.116 77.03 165.264 77.6396 165.264 78.3338ZM161.835 76.0986C161.327 76.0986 160.895 76.251 160.539 76.5558C160.192 76.8522 159.981 77.2501 159.904 77.7496H163.753C163.685 77.2586 163.477 76.8606 163.13 76.5558C162.783 76.251 162.351 76.0986 161.835 76.0986ZM170.548 74.8286C171.208 74.8286 171.797 74.9726 172.313 75.2604C172.838 75.5483 173.249 75.9547 173.545 76.4796C173.841 77.0046 173.99 77.6099 173.99 78.2957C173.99 78.9815 173.841 79.5911 173.545 80.1245C173.249 80.6495 172.838 81.0559 172.313 81.3437C171.797 81.6316 171.208 81.7755 170.548 81.7755C169.634 81.7755 168.91 81.4707 168.376 80.8611V84.1504H166.789V74.9048H168.3V75.7938C168.563 75.4721 168.884 75.2308 169.265 75.0699C169.655 74.9091 170.082 74.8286 170.548 74.8286ZM170.37 80.4166C170.954 80.4166 171.433 80.2219 171.805 79.8324C172.186 79.443 172.377 78.9307 172.377 78.2957C172.377 77.6607 172.186 77.1485 171.805 76.759C171.433 76.3696 170.954 76.1748 170.37 76.1748C169.989 76.1748 169.646 76.2637 169.341 76.4415C169.037 76.6109 168.795 76.8564 168.618 77.1781C168.44 77.4999 168.351 77.8724 168.351 78.2957C168.351 78.7191 168.44 79.0916 168.618 79.4133C168.795 79.7351 169.037 79.9848 169.341 80.1626C169.646 80.332 169.989 80.4166 170.37 80.4166ZM184.961 80.2896V81.6866H178.408V80.5817L181.939 77.2289C182.337 76.8479 182.603 76.5177 182.739 76.2383C182.883 75.9505 182.955 75.6668 182.955 75.3874C182.955 74.9726 182.815 74.6551 182.536 74.4349C182.256 74.2148 181.846 74.1047 181.304 74.1047C180.398 74.1047 179.704 74.4138 179.221 75.0318L178.065 74.1428C178.412 73.6772 178.878 73.3173 179.462 73.0633C180.055 72.8009 180.715 72.6696 181.443 72.6696C182.409 72.6696 183.179 72.8982 183.755 73.3554C184.331 73.8126 184.618 74.4349 184.618 75.2223C184.618 75.7049 184.517 76.1579 184.314 76.5812C184.11 77.0046 183.721 77.4872 183.145 78.029L180.77 80.2896H184.961ZM189.585 81.8136C188.874 81.8136 188.239 81.6358 187.68 81.2802C187.122 80.9162 186.681 80.3912 186.36 79.7054C186.038 79.0112 185.877 78.1899 185.877 77.2416C185.877 76.2934 186.038 75.4763 186.36 74.7905C186.681 74.0963 187.122 73.5713 187.68 73.2157C188.239 72.8517 188.874 72.6696 189.585 72.6696C190.297 72.6696 190.932 72.8517 191.49 73.2157C192.058 73.5713 192.502 74.0963 192.824 74.7905C193.146 75.4763 193.307 76.2934 193.307 77.2416C193.307 78.1899 193.146 79.0112 192.824 79.7054C192.502 80.3912 192.058 80.9162 191.49 81.2802C190.932 81.6358 190.297 81.8136 189.585 81.8136ZM189.585 80.3785C190.22 80.3785 190.72 80.1161 191.084 79.5911C191.457 79.0662 191.643 78.283 191.643 77.2416C191.643 76.2002 191.457 75.4171 191.084 74.8921C190.72 74.3672 190.22 74.1047 189.585 74.1047C188.959 74.1047 188.459 74.3672 188.087 74.8921C187.723 75.4171 187.541 76.2002 187.541 77.2416C187.541 78.283 187.723 79.0662 188.087 79.5911C188.459 80.1161 188.959 80.3785 189.585 80.3785ZM200.799 80.2896V81.6866H194.246V80.5817L197.777 77.2289C198.174 76.8479 198.441 76.5177 198.577 76.2383C198.721 75.9505 198.793 75.6668 198.793 75.3874C198.793 74.9726 198.653 74.6551 198.373 74.4349C198.094 74.2148 197.683 74.1047 197.142 74.1047C196.236 74.1047 195.541 74.4138 195.059 75.0318L193.903 74.1428C194.25 73.6772 194.716 73.3173 195.3 73.0633C195.893 72.8009 196.553 72.6696 197.281 72.6696C198.246 72.6696 199.017 72.8982 199.593 73.3554C200.168 73.8126 200.456 74.4349 200.456 75.2223C200.456 75.7049 200.355 76.1579 200.151 76.5812C199.948 77.0046 199.559 77.4872 198.983 78.029L196.608 80.2896H200.799ZM204.825 72.7966V81.6866H203.174V74.1809H201.295V72.7966H204.825Z" fill="#455A64"/>
<path d="M131.312 94.6968H133.836C134.469 94.6968 135.031 94.8223 135.522 95.0733C136.012 95.3243 136.392 95.678 136.66 96.1343C136.933 96.585 137.07 97.1041 137.07 97.6917C137.07 98.2793 136.933 98.8013 136.66 99.2576C136.392 99.7083 136.012 100.059 135.522 100.31C135.031 100.561 134.469 100.687 133.836 100.687H131.312V94.6968ZM133.785 99.9422C134.269 99.9422 134.694 99.8481 135.06 99.6598C135.43 99.4716 135.716 99.2091 135.915 98.8726C136.115 98.5303 136.215 98.1367 136.215 97.6917C136.215 97.2468 136.115 96.856 135.915 96.5194C135.716 96.1771 135.43 95.9119 135.06 95.7236C134.694 95.5354 134.269 95.4412 133.785 95.4412H132.167V99.9422H133.785ZM142.488 96.1515V100.687H141.71V100.002C141.544 100.236 141.325 100.419 141.051 100.55C140.783 100.675 140.489 100.738 140.169 100.738C139.565 100.738 139.088 100.573 138.74 100.242C138.392 99.9051 138.218 99.4117 138.218 98.7613V96.1515H139.04V98.6672C139.04 99.1065 139.146 99.4402 139.357 99.6684C139.568 99.8908 139.87 100.002 140.264 100.002C140.697 100.002 141.039 99.8709 141.29 99.6085C141.541 99.3461 141.667 98.9753 141.667 98.4961V96.1515H142.488ZM148.151 98.4447C148.151 98.5075 148.145 98.5902 148.134 98.6929H144.454C144.506 99.0922 144.68 99.4145 144.976 99.6598C145.279 99.8994 145.652 100.019 146.097 100.019C146.639 100.019 147.076 99.8367 147.407 99.4716L147.86 100.002C147.655 100.242 147.398 100.424 147.09 100.55C146.788 100.675 146.448 100.738 146.072 100.738C145.593 100.738 145.168 100.641 144.797 100.447C144.426 100.247 144.138 99.9707 143.932 99.617C143.733 99.2633 143.633 98.864 143.633 98.4191C143.633 97.9798 143.73 97.5833 143.924 97.2296C144.124 96.8759 144.395 96.6021 144.737 96.4082C145.085 96.2085 145.476 96.1087 145.909 96.1087C146.343 96.1087 146.728 96.2085 147.064 96.4082C147.407 96.6021 147.672 96.8759 147.86 97.2296C148.054 97.5833 148.151 97.9884 148.151 98.4447ZM145.909 96.8018C145.516 96.8018 145.185 96.9216 144.917 97.1612C144.654 97.4008 144.5 97.7145 144.454 98.1024H147.364C147.318 97.7202 147.161 97.4093 146.893 97.1697C146.631 96.9244 146.303 96.8018 145.909 96.8018ZM151.71 94.6968H154.234C154.867 94.6968 155.429 94.8223 155.92 95.0733C156.41 95.3243 156.79 95.678 157.058 96.1343C157.331 96.585 157.468 97.1041 157.468 97.6917C157.468 98.2793 157.331 98.8013 157.058 99.2576C156.79 99.7083 156.41 100.059 155.92 100.31C155.429 100.561 154.867 100.687 154.234 100.687H151.71V94.6968ZM154.182 99.9422C154.667 99.9422 155.092 99.8481 155.457 99.6598C155.828 99.4716 156.114 99.2091 156.313 98.8726C156.513 98.5303 156.613 98.1367 156.613 97.6917C156.613 97.2468 156.513 96.856 156.313 96.5194C156.114 96.1771 155.828 95.9119 155.457 95.7236C155.092 95.5354 154.667 95.4412 154.182 95.4412H152.565V99.9422H154.182ZM160.311 96.1087C160.938 96.1087 161.417 96.2627 161.748 96.5708C162.085 96.8788 162.253 97.338 162.253 97.9484V100.687H161.474V100.088C161.338 100.299 161.141 100.461 160.884 100.575C160.633 100.684 160.334 100.738 159.986 100.738C159.478 100.738 159.07 100.615 158.762 100.37C158.46 100.125 158.308 99.8024 158.308 99.4031C158.308 99.0038 158.454 98.6843 158.745 98.4447C159.036 98.1994 159.498 98.0768 160.131 98.0768H161.432V97.9142C161.432 97.5605 161.329 97.2895 161.124 97.1013C160.918 96.913 160.616 96.8189 160.217 96.8189C159.948 96.8189 159.686 96.8645 159.429 96.9558C159.173 97.0414 158.956 97.1583 158.779 97.3066L158.437 96.6905C158.671 96.5023 158.95 96.3597 159.275 96.2627C159.601 96.16 159.946 96.1087 160.311 96.1087ZM160.122 100.105C160.436 100.105 160.707 100.036 160.935 99.8994C161.164 99.7568 161.329 99.5571 161.432 99.3004V98.6672H160.165C159.469 98.6672 159.121 98.9011 159.121 99.3689C159.121 99.5971 159.21 99.7768 159.387 99.908C159.563 100.039 159.809 100.105 160.122 100.105ZM166.323 100.421C166.204 100.524 166.055 100.604 165.878 100.661C165.702 100.712 165.519 100.738 165.331 100.738C164.874 100.738 164.521 100.615 164.27 100.37C164.019 100.125 163.893 99.7739 163.893 99.3175V96.8275H163.123V96.1515H163.893V95.1589H164.715V96.1515H166.015V96.8275H164.715V99.2833C164.715 99.5286 164.775 99.7169 164.894 99.8481C165.02 99.9793 165.197 100.045 165.425 100.045C165.676 100.045 165.89 99.9736 166.067 99.831L166.323 100.421ZM171.265 98.4447C171.265 98.5075 171.259 98.5902 171.248 98.6929H167.568C167.62 99.0922 167.794 99.4145 168.09 99.6598C168.393 99.8994 168.766 100.019 169.211 100.019C169.753 100.019 170.19 99.8367 170.52 99.4716L170.974 100.002C170.769 100.242 170.512 100.424 170.204 100.55C169.901 100.675 169.562 100.738 169.186 100.738C168.706 100.738 168.281 100.641 167.911 100.447C167.54 100.247 167.252 99.9707 167.046 99.617C166.847 99.2633 166.747 98.864 166.747 98.4191C166.747 97.9798 166.844 97.5833 167.038 97.2296C167.237 96.8759 167.508 96.6021 167.851 96.4082C168.199 96.2085 168.589 96.1087 169.023 96.1087C169.456 96.1087 169.842 96.2085 170.178 96.4082C170.52 96.6021 170.786 96.8759 170.974 97.2296C171.168 97.5833 171.265 97.9884 171.265 98.4447ZM169.023 96.8018C168.629 96.8018 168.298 96.9216 168.03 97.1612C167.768 97.4008 167.614 97.7145 167.568 98.1024H170.478C170.432 97.7202 170.275 97.4093 170.007 97.1697C169.745 96.9244 169.417 96.8018 169.023 96.8018Z" fill="#546E7A"/>
<rect x="275" y="70.056" width="98" height="27.2222" rx="13.6111" fill="#2962FF"/>
<path d="M301.237 81.1249C301.765 81.1249 302.224 81.212 302.613 81.3862C303.008 81.5604 303.31 81.8102 303.519 82.1354C303.728 82.4606 303.833 82.8468 303.833 83.2939C303.833 83.7353 303.728 84.1215 303.519 84.4525C303.31 84.7777 303.008 85.0275 302.613 85.2017C302.224 85.3759 301.765 85.463 301.237 85.463H299.861V87.2227H298.728V81.1249H301.237ZM301.185 84.5048C301.678 84.5048 302.053 84.4003 302.308 84.1912C302.564 83.9821 302.692 83.683 302.692 83.2939C302.692 82.9048 302.564 82.6058 302.308 82.3967C302.053 82.1876 301.678 82.0831 301.185 82.0831H299.861V84.5048H301.185ZM305.853 83.2504C306.167 82.7626 306.719 82.5187 307.508 82.5187V83.5553C307.415 83.5379 307.331 83.5291 307.256 83.5291C306.832 83.5291 306.501 83.654 306.263 83.9037C306.025 84.1476 305.905 84.5019 305.905 84.9665V87.2227H304.817V82.5709H305.853V83.2504ZM312.762 84.9229C312.762 84.9984 312.757 85.1059 312.745 85.2452H309.095C309.159 85.5879 309.325 85.8608 309.592 86.0641C309.865 86.2615 310.201 86.3603 310.602 86.3603C311.113 86.3603 311.534 86.1918 311.865 85.855L312.449 86.5258C312.24 86.7755 311.976 86.9642 311.656 87.092C311.337 87.2198 310.977 87.2836 310.576 87.2836C310.065 87.2836 309.615 87.182 309.226 86.9787C308.837 86.7755 308.535 86.4938 308.32 86.1338C308.111 85.7679 308.006 85.3556 308.006 84.8968C308.006 84.4438 308.108 84.0373 308.311 83.6772C308.52 83.3114 308.808 83.0268 309.174 82.8235C309.539 82.6203 309.952 82.5187 310.41 82.5187C310.863 82.5187 311.267 82.6203 311.621 82.8235C311.981 83.021 312.26 83.3027 312.458 83.6685C312.661 84.0286 312.762 84.4467 312.762 84.9229ZM310.41 83.3898C310.062 83.3898 309.766 83.4943 309.522 83.7034C309.284 83.9066 309.139 84.1796 309.086 84.5222H311.726C311.679 84.1854 311.537 83.9124 311.299 83.7034C311.061 83.4943 310.765 83.3898 310.41 83.3898ZM316.387 82.5187C316.84 82.5187 317.244 82.6174 317.598 82.8148C317.958 83.0123 318.239 83.291 318.443 83.6511C318.646 84.0112 318.748 84.4264 318.748 84.8968C318.748 85.3672 318.646 85.7853 318.443 86.1512C318.239 86.5112 317.958 86.79 317.598 86.9875C317.244 87.1849 316.84 87.2836 316.387 87.2836C315.76 87.2836 315.263 87.0746 314.897 86.6564V88.9126H313.808V82.5709H314.845V83.1807C315.025 82.96 315.246 82.7945 315.507 82.6842C315.774 82.5738 316.068 82.5187 316.387 82.5187ZM316.265 86.3515C316.666 86.3515 316.994 86.218 317.249 85.9508C317.511 85.6837 317.641 85.3323 317.641 84.8968C317.641 84.4612 317.511 84.1099 317.249 83.8427C316.994 83.5756 316.666 83.442 316.265 83.442C316.004 83.442 315.768 83.503 315.559 83.625C315.35 83.7411 315.185 83.9095 315.063 84.1302C314.941 84.3509 314.88 84.6064 314.88 84.8968C314.88 85.1872 314.941 85.4427 315.063 85.6634C315.185 85.884 315.35 86.0554 315.559 86.1773C315.768 86.2935 316.004 86.3515 316.265 86.3515ZM321.498 82.5187C322.183 82.5187 322.706 82.6842 323.066 83.0152C323.432 83.3404 323.615 83.834 323.615 84.4961V87.2227H322.587V86.6564C322.453 86.8597 322.262 87.0165 322.012 87.1268C321.768 87.2314 321.472 87.2836 321.123 87.2836C320.775 87.2836 320.47 87.2256 320.209 87.1094C319.947 86.9875 319.744 86.8219 319.599 86.6129C319.459 86.398 319.39 86.157 319.39 85.8899C319.39 85.4717 319.544 85.1378 319.851 84.8881C320.165 84.6326 320.656 84.5048 321.324 84.5048H322.526V84.4351C322.526 84.1099 322.427 83.8602 322.23 83.6859C322.038 83.5117 321.75 83.4246 321.367 83.4246C321.106 83.4246 320.847 83.4653 320.592 83.5466C320.342 83.6279 320.13 83.7411 319.956 83.8863L319.529 83.0936C319.773 82.9078 320.066 82.7655 320.409 82.6667C320.752 82.568 321.115 82.5187 321.498 82.5187ZM321.35 86.4909C321.623 86.4909 321.864 86.4299 322.073 86.308C322.288 86.1802 322.439 86.0002 322.526 85.7679V85.2278H321.402C320.775 85.2278 320.461 85.434 320.461 85.8463C320.461 86.0438 320.54 86.2006 320.696 86.3167C320.853 86.4328 321.071 86.4909 321.35 86.4909ZM326.049 83.2504C326.362 82.7626 326.914 82.5187 327.704 82.5187V83.5553C327.611 83.5379 327.527 83.5291 327.451 83.5291C327.027 83.5291 326.696 83.654 326.458 83.9037C326.22 84.1476 326.101 84.5019 326.101 84.9665V87.2227H325.012V82.5709H326.049V83.2504ZM332.958 84.9229C332.958 84.9984 332.952 85.1059 332.941 85.2452H329.291C329.354 85.5879 329.52 85.8608 329.787 86.0641C330.06 86.2615 330.397 86.3603 330.798 86.3603C331.309 86.3603 331.73 86.1918 332.061 85.855L332.644 86.5258C332.435 86.7755 332.171 86.9642 331.852 87.092C331.532 87.2198 331.172 87.2836 330.771 87.2836C330.26 87.2836 329.81 87.182 329.421 86.9787C329.032 86.7755 328.73 86.4938 328.515 86.1338C328.306 85.7679 328.202 85.3556 328.202 84.8968C328.202 84.4438 328.303 84.0373 328.507 83.6772C328.716 83.3114 329.003 83.0268 329.369 82.8235C329.735 82.6203 330.147 82.5187 330.606 82.5187C331.059 82.5187 331.463 82.6203 331.817 82.8235C332.177 83.021 332.456 83.3027 332.653 83.6685C332.856 84.0286 332.958 84.4467 332.958 84.9229ZM330.606 83.3898C330.258 83.3898 329.961 83.4943 329.717 83.7034C329.479 83.9066 329.334 84.1796 329.282 84.5222H331.921C331.875 84.1854 331.733 83.9124 331.495 83.7034C331.256 83.4943 330.96 83.3898 330.606 83.3898ZM336.516 81.1249H337.648V87.2227H336.516V81.1249ZM340.535 82.0831H338.514V81.1249H343.688V82.0831H341.667V87.2227H340.535V82.0831ZM348.528 87.2227L347.282 85.4369C347.23 85.4427 347.151 85.4456 347.047 85.4456H345.67V87.2227H344.538V81.1249H347.047C347.575 81.1249 348.034 81.212 348.423 81.3862C348.818 81.5604 349.12 81.8102 349.329 82.1354C349.538 82.4606 349.643 82.8468 349.643 83.2939C349.643 83.7527 349.529 84.1476 349.303 84.4787C349.082 84.8097 348.763 85.0565 348.345 85.2191L349.747 87.2227H348.528ZM348.502 83.2939C348.502 82.9048 348.374 82.6058 348.118 82.3967C347.863 82.1876 347.488 82.0831 346.995 82.0831H345.67V84.5135H346.995C347.488 84.5135 347.863 84.409 348.118 84.1999C348.374 83.985 348.502 83.683 348.502 83.2939Z" fill="white"/>
<g filter="url(#filter1_d)">
<path d="M9 157.056C9 151.533 13.4772 147.056 19 147.056H386C391.523 147.056 396 151.533 396 157.056V390.056C396 395.579 391.523 400.056 386 400.056H19C13.4772 400.056 9 395.579 9 390.056V157.056Z" fill="white"/>
</g>
<path d="M76.0258 317.152C75.1858 317.152 74.4258 316.968 73.7458 316.6C73.0738 316.224 72.5458 315.712 72.1618 315.064C71.7778 314.408 71.5858 313.672 71.5858 312.856C71.5858 312.04 71.7778 311.308 72.1618 310.66C72.5458 310.004 73.0778 309.492 73.7578 309.124C74.4378 308.748 75.1978 308.56 76.0378 308.56C76.6938 308.56 77.2938 308.672 77.8378 308.896C78.3818 309.112 78.8458 309.436 79.2298 309.868L78.4498 310.624C77.8178 309.96 77.0298 309.628 76.0858 309.628C75.4618 309.628 74.8978 309.768 74.3938 310.048C73.8898 310.328 73.4938 310.716 73.2058 311.212C72.9258 311.7 72.7858 312.248 72.7858 312.856C72.7858 313.464 72.9258 314.016 73.2058 314.512C73.4938 315 73.8898 315.384 74.3938 315.664C74.8978 315.944 75.4618 316.084 76.0858 316.084C77.0218 316.084 77.8098 315.748 78.4498 315.076L79.2298 315.832C78.8458 316.264 78.3778 316.592 77.8258 316.816C77.2818 317.04 76.6818 317.152 76.0258 317.152ZM83.0076 310.636C83.8876 310.636 84.5596 310.852 85.0236 311.284C85.4956 311.716 85.7316 312.36 85.7316 313.216V317.056H84.6396V316.216C84.4476 316.512 84.1716 316.74 83.8116 316.9C83.4596 317.052 83.0396 317.128 82.5516 317.128C81.8396 317.128 81.2676 316.956 80.8356 316.612C80.4116 316.268 80.1996 315.816 80.1996 315.256C80.1996 314.696 80.4036 314.248 80.8116 313.912C81.2196 313.568 81.8676 313.396 82.7556 313.396H84.5796V313.168C84.5796 312.672 84.4356 312.292 84.1476 312.028C83.8596 311.764 83.4356 311.632 82.8756 311.632C82.4996 311.632 82.1316 311.696 81.7716 311.824C81.4116 311.944 81.1076 312.108 80.8596 312.316L80.3796 311.452C80.7076 311.188 81.0996 310.988 81.5556 310.852C82.0116 310.708 82.4956 310.636 83.0076 310.636ZM82.7436 316.24C83.1836 316.24 83.5636 316.144 83.8836 315.952C84.2036 315.752 84.4356 315.472 84.5796 315.112V314.224H82.8036C81.8276 314.224 81.3396 314.552 81.3396 315.208C81.3396 315.528 81.4636 315.78 81.7116 315.964C81.9596 316.148 82.3036 316.24 82.7436 316.24ZM91.2355 310.636C91.8515 310.636 92.4035 310.772 92.8915 311.044C93.3795 311.316 93.7595 311.696 94.0315 312.184C94.3115 312.672 94.4515 313.236 94.4515 313.876C94.4515 314.516 94.3115 315.084 94.0315 315.58C93.7595 316.068 93.3795 316.448 92.8915 316.72C92.4035 316.992 91.8515 317.128 91.2355 317.128C90.7795 317.128 90.3595 317.04 89.9755 316.864C89.5995 316.688 89.2795 316.432 89.0155 316.096V319.384H87.8635V310.696H88.9675V311.704C89.2235 311.352 89.5475 311.088 89.9395 310.912C90.3315 310.728 90.7635 310.636 91.2355 310.636ZM91.1395 316.12C91.5475 316.12 91.9115 316.028 92.2315 315.844C92.5595 315.652 92.8155 315.388 92.9995 315.052C93.1915 314.708 93.2875 314.316 93.2875 313.876C93.2875 313.436 93.1915 313.048 92.9995 312.712C92.8155 312.368 92.5595 312.104 92.2315 311.92C91.9115 311.736 91.5475 311.644 91.1395 311.644C90.7395 311.644 90.3755 311.74 90.0475 311.932C89.7275 312.116 89.4715 312.376 89.2795 312.712C89.0955 313.048 89.0035 313.436 89.0035 313.876C89.0035 314.316 89.0955 314.708 89.2795 315.052C89.4635 315.388 89.7195 315.652 90.0475 315.844C90.3755 316.028 90.7395 316.12 91.1395 316.12ZM96.0432 310.696H97.1952V317.056H96.0432V310.696ZM96.6192 309.472C96.3952 309.472 96.2072 309.4 96.0552 309.256C95.9112 309.112 95.8392 308.936 95.8392 308.728C95.8392 308.52 95.9112 308.344 96.0552 308.2C96.2072 308.048 96.3952 307.972 96.6192 307.972C96.8432 307.972 97.0272 308.044 97.1712 308.188C97.3232 308.324 97.3992 308.496 97.3992 308.704C97.3992 308.92 97.3232 309.104 97.1712 309.256C97.0272 309.4 96.8432 309.472 96.6192 309.472ZM102.971 316.684C102.803 316.828 102.595 316.94 102.347 317.02C102.099 317.092 101.843 317.128 101.579 317.128C100.939 317.128 100.443 316.956 100.091 316.612C99.7387 316.268 99.5627 315.776 99.5627 315.136V311.644H98.4827V310.696H99.5627V309.304H100.715V310.696H102.539V311.644H100.715V315.088C100.715 315.432 100.799 315.696 100.967 315.88C101.143 316.064 101.391 316.156 101.711 316.156C102.063 316.156 102.363 316.056 102.611 315.856L102.971 316.684ZM106.679 310.636C107.559 310.636 108.231 310.852 108.695 311.284C109.167 311.716 109.403 312.36 109.403 313.216V317.056H108.311V316.216C108.119 316.512 107.843 316.74 107.483 316.9C107.131 317.052 106.711 317.128 106.223 317.128C105.511 317.128 104.939 316.956 104.507 316.612C104.083 316.268 103.871 315.816 103.871 315.256C103.871 314.696 104.075 314.248 104.483 313.912C104.891 313.568 105.539 313.396 106.427 313.396H108.251V313.168C108.251 312.672 108.107 312.292 107.819 312.028C107.531 311.764 107.107 311.632 106.547 311.632C106.171 311.632 105.803 311.696 105.443 311.824C105.083 311.944 104.779 312.108 104.531 312.316L104.051 311.452C104.379 311.188 104.771 310.988 105.227 310.852C105.683 310.708 106.167 310.636 106.679 310.636ZM106.415 316.24C106.855 316.24 107.235 316.144 107.555 315.952C107.875 315.752 108.107 315.472 108.251 315.112V314.224H106.475C105.499 314.224 105.011 314.552 105.011 315.208C105.011 315.528 105.135 315.78 105.383 315.964C105.631 316.148 105.975 316.24 106.415 316.24ZM111.535 308.152H112.687V317.056H111.535V308.152ZM124.098 312.808H125.25V316.084C124.834 316.428 124.35 316.692 123.798 316.876C123.246 317.06 122.67 317.152 122.07 317.152C121.222 317.152 120.458 316.968 119.778 316.6C119.098 316.224 118.562 315.712 118.17 315.064C117.786 314.408 117.594 313.672 117.594 312.856C117.594 312.04 117.786 311.304 118.17 310.648C118.562 309.992 119.098 309.48 119.778 309.112C120.466 308.744 121.238 308.56 122.094 308.56C122.766 308.56 123.374 308.672 123.918 308.896C124.47 309.112 124.938 309.432 125.322 309.856L124.578 310.6C123.906 309.952 123.094 309.628 122.142 309.628C121.502 309.628 120.926 309.768 120.414 310.048C119.91 310.32 119.514 310.704 119.226 311.2C118.938 311.688 118.794 312.24 118.794 312.856C118.794 313.464 118.938 314.016 119.226 314.512C119.514 315 119.91 315.384 120.414 315.664C120.926 315.944 121.498 316.084 122.13 316.084C122.882 316.084 123.538 315.904 124.098 315.544V312.808ZM129.695 310.636C130.575 310.636 131.247 310.852 131.711 311.284C132.183 311.716 132.419 312.36 132.419 313.216V317.056H131.327V316.216C131.135 316.512 130.859 316.74 130.499 316.9C130.147 317.052 129.727 317.128 129.239 317.128C128.527 317.128 127.955 316.956 127.523 316.612C127.099 316.268 126.887 315.816 126.887 315.256C126.887 314.696 127.091 314.248 127.499 313.912C127.907 313.568 128.555 313.396 129.443 313.396H131.267V313.168C131.267 312.672 131.123 312.292 130.835 312.028C130.547 311.764 130.123 311.632 129.563 311.632C129.187 311.632 128.819 311.696 128.459 311.824C128.099 311.944 127.795 312.108 127.547 312.316L127.067 311.452C127.395 311.188 127.787 310.988 128.243 310.852C128.699 310.708 129.183 310.636 129.695 310.636ZM129.431 316.24C129.871 316.24 130.251 316.144 130.571 315.952C130.891 315.752 131.123 315.472 131.267 315.112V314.224H129.491C128.515 314.224 128.027 314.552 128.027 315.208C128.027 315.528 128.151 315.78 128.399 315.964C128.647 316.148 128.991 316.24 129.431 316.24ZM134.551 310.696H135.703V317.056H134.551V310.696ZM135.127 309.472C134.903 309.472 134.715 309.4 134.563 309.256C134.419 309.112 134.347 308.936 134.347 308.728C134.347 308.52 134.419 308.344 134.563 308.2C134.715 308.048 134.903 307.972 135.127 307.972C135.351 307.972 135.535 308.044 135.679 308.188C135.831 308.324 135.907 308.496 135.907 308.704C135.907 308.92 135.831 309.104 135.679 309.256C135.535 309.4 135.351 309.472 135.127 309.472ZM141.299 310.636C142.107 310.636 142.747 310.872 143.219 311.344C143.699 311.808 143.939 312.492 143.939 313.396V317.056H142.787V313.528C142.787 312.912 142.639 312.448 142.343 312.136C142.047 311.824 141.623 311.668 141.071 311.668C140.447 311.668 139.955 311.852 139.595 312.22C139.235 312.58 139.055 313.1 139.055 313.78V317.056H137.903V310.696H139.007V311.656C139.239 311.328 139.551 311.076 139.943 310.9C140.343 310.724 140.795 310.636 141.299 310.636ZM147.895 317.128C147.375 317.128 146.875 317.06 146.395 316.924C145.915 316.78 145.539 316.6 145.267 316.384L145.747 315.472C146.027 315.672 146.367 315.832 146.767 315.952C147.167 316.072 147.571 316.132 147.979 316.132C148.987 316.132 149.491 315.844 149.491 315.268C149.491 315.076 149.423 314.924 149.287 314.812C149.151 314.7 148.979 314.62 148.771 314.572C148.571 314.516 148.283 314.456 147.907 314.392C147.395 314.312 146.975 314.22 146.647 314.116C146.327 314.012 146.051 313.836 145.819 313.588C145.587 313.34 145.471 312.992 145.471 312.544C145.471 311.968 145.711 311.508 146.191 311.164C146.671 310.812 147.315 310.636 148.123 310.636C148.547 310.636 148.971 310.688 149.395 310.792C149.819 310.896 150.167 311.036 150.439 311.212L149.947 312.124C149.427 311.788 148.815 311.62 148.111 311.62C147.623 311.62 147.251 311.7 146.995 311.86C146.739 312.02 146.611 312.232 146.611 312.496C146.611 312.704 146.683 312.868 146.827 312.988C146.971 313.108 147.147 313.196 147.355 313.252C147.571 313.308 147.871 313.372 148.255 313.444C148.767 313.532 149.179 313.628 149.491 313.732C149.811 313.828 150.083 313.996 150.307 314.236C150.531 314.476 150.643 314.812 150.643 315.244C150.643 315.82 150.395 316.28 149.899 316.624C149.411 316.96 148.743 317.128 147.895 317.128Z" fill="#455A64"/>
<path d="M322.251 309.34H320.103C320.455 309.588 320.707 309.916 320.859 310.324H322.251V311.008H321.015C321.031 311.088 321.039 311.208 321.039 311.368C321.039 312 320.871 312.536 320.535 312.976C320.207 313.416 319.739 313.736 319.131 313.936L321.195 317.056H319.887L317.979 314.152C317.883 314.16 317.739 314.164 317.547 314.164H315.471V313.132H317.511C318.295 313.132 318.879 312.972 319.263 312.652C319.647 312.324 319.839 311.888 319.839 311.344C319.839 311.264 319.831 311.152 319.815 311.008H314.559V310.324H319.599C319.231 309.66 318.503 309.332 317.415 309.34H314.559V308.656H322.251V309.34ZM329.862 312.184C330.686 312.264 331.314 312.52 331.746 312.952C332.178 313.376 332.394 313.92 332.394 314.584C332.394 315.064 332.274 315.5 332.034 315.892C331.794 316.276 331.434 316.584 330.954 316.816C330.482 317.04 329.902 317.152 329.214 317.152C328.614 317.152 328.038 317.064 327.486 316.888C326.934 316.704 326.482 316.452 326.13 316.132L326.682 315.184C326.97 315.456 327.338 315.676 327.786 315.844C328.234 316.004 328.71 316.084 329.214 316.084C329.838 316.084 330.322 315.952 330.666 315.688C331.018 315.424 331.194 315.06 331.194 314.596C331.194 314.132 331.022 313.772 330.678 313.516C330.334 313.26 329.814 313.132 329.118 313.132H328.446V312.292L330.558 309.7H326.514V308.656H332.058V309.472L329.862 312.184ZM340.822 314.992H339.226V317.056H338.062V314.992H333.394V314.152L337.69 308.656H338.986L334.87 313.96H338.098V312.136H339.226V313.96H340.822V314.992ZM342.579 315.484C342.803 315.484 342.987 315.564 343.131 315.724C343.283 315.876 343.359 316.068 343.359 316.3C343.359 316.42 343.343 316.536 343.311 316.648C343.287 316.76 343.235 316.932 343.155 317.164L342.591 318.832H341.835L342.279 317.044C342.127 316.988 342.003 316.896 341.907 316.768C341.819 316.632 341.775 316.476 341.775 316.3C341.775 316.06 341.851 315.864 342.003 315.712C342.155 315.56 342.347 315.484 342.579 315.484ZM347.785 317.152C347.121 317.152 346.529 316.984 346.009 316.648C345.497 316.304 345.093 315.808 344.797 315.16C344.501 314.512 344.353 313.744 344.353 312.856C344.353 311.968 344.501 311.2 344.797 310.552C345.093 309.904 345.497 309.412 346.009 309.076C346.529 308.732 347.121 308.56 347.785 308.56C348.441 308.56 349.025 308.732 349.537 309.076C350.057 309.412 350.465 309.904 350.761 310.552C351.057 311.2 351.205 311.968 351.205 312.856C351.205 313.744 351.057 314.512 350.761 315.16C350.465 315.808 350.057 316.304 349.537 316.648C349.025 316.984 348.441 317.152 347.785 317.152ZM347.785 316.084C348.457 316.084 348.993 315.808 349.393 315.256C349.801 314.704 350.005 313.904 350.005 312.856C350.005 311.808 349.801 311.008 349.393 310.456C348.993 309.904 348.457 309.628 347.785 309.628C347.105 309.628 346.561 309.904 346.153 310.456C345.753 311.008 345.553 311.808 345.553 312.856C345.553 313.904 345.753 314.704 346.153 315.256C346.561 315.808 347.105 316.084 347.785 316.084ZM355.789 317.152C355.125 317.152 354.533 316.984 354.013 316.648C353.501 316.304 353.097 315.808 352.801 315.16C352.505 314.512 352.357 313.744 352.357 312.856C352.357 311.968 352.505 311.2 352.801 310.552C353.097 309.904 353.501 309.412 354.013 309.076C354.533 308.732 355.125 308.56 355.789 308.56C356.445 308.56 357.029 308.732 357.541 309.076C358.061 309.412 358.469 309.904 358.765 310.552C359.061 311.2 359.209 311.968 359.209 312.856C359.209 313.744 359.061 314.512 358.765 315.16C358.469 315.808 358.061 316.304 357.541 316.648C357.029 316.984 356.445 317.152 355.789 317.152ZM355.789 316.084C356.461 316.084 356.997 315.808 357.397 315.256C357.805 314.704 358.009 313.904 358.009 312.856C358.009 311.808 357.805 311.008 357.397 310.456C356.997 309.904 356.461 309.628 355.789 309.628C355.109 309.628 354.565 309.904 354.157 310.456C353.757 311.008 353.557 311.808 353.557 312.856C353.557 313.904 353.757 314.704 354.157 315.256C354.565 315.808 355.109 316.084 355.789 316.084ZM363.793 317.152C363.129 317.152 362.537 316.984 362.017 316.648C361.505 316.304 361.101 315.808 360.805 315.16C360.509 314.512 360.361 313.744 360.361 312.856C360.361 311.968 360.509 311.2 360.805 310.552C361.101 309.904 361.505 309.412 362.017 309.076C362.537 308.732 363.129 308.56 363.793 308.56C364.449 308.56 365.033 308.732 365.545 309.076C366.065 309.412 366.473 309.904 366.769 310.552C367.065 311.2 367.213 311.968 367.213 312.856C367.213 313.744 367.065 314.512 366.769 315.16C366.473 315.808 366.065 316.304 365.545 316.648C365.033 316.984 364.449 317.152 363.793 317.152ZM363.793 316.084C364.465 316.084 365.001 315.808 365.401 315.256C365.809 314.704 366.013 313.904 366.013 312.856C366.013 311.808 365.809 311.008 365.401 310.456C365.001 309.904 364.465 309.628 363.793 309.628C363.113 309.628 362.569 309.904 362.161 310.456C361.761 311.008 361.561 311.808 361.561 312.856C361.561 313.904 361.761 314.704 362.161 315.256C362.569 315.808 363.113 316.084 363.793 316.084Z" fill="#455A64"/>
<path d="M74.708 270.152C74.076 270.152 73.464 270.056 72.872 269.864C72.288 269.664 71.828 269.408 71.492 269.096L71.936 268.16C72.256 268.448 72.664 268.684 73.16 268.868C73.664 269.044 74.18 269.132 74.708 269.132C75.404 269.132 75.924 269.016 76.268 268.784C76.612 268.544 76.784 268.228 76.784 267.836C76.784 267.548 76.688 267.316 76.496 267.14C76.312 266.956 76.08 266.816 75.8 266.72C75.528 266.624 75.14 266.516 74.636 266.396C74.004 266.244 73.492 266.092 73.1 265.94C72.716 265.788 72.384 265.556 72.104 265.244C71.832 264.924 71.696 264.496 71.696 263.96C71.696 263.512 71.812 263.108 72.044 262.748C72.284 262.388 72.644 262.1 73.124 261.884C73.604 261.668 74.2 261.56 74.912 261.56C75.408 261.56 75.896 261.624 76.376 261.752C76.856 261.88 77.268 262.064 77.612 262.304L77.216 263.264C76.864 263.04 76.488 262.872 76.088 262.76C75.688 262.64 75.296 262.58 74.912 262.58C74.232 262.58 73.72 262.704 73.376 262.952C73.04 263.2 72.872 263.52 72.872 263.912C72.872 264.2 72.968 264.436 73.16 264.62C73.352 264.796 73.588 264.936 73.868 265.04C74.156 265.136 74.544 265.24 75.032 265.352C75.664 265.504 76.172 265.656 76.556 265.808C76.94 265.96 77.268 266.192 77.54 266.504C77.82 266.816 77.96 267.236 77.96 267.764C77.96 268.204 77.84 268.608 77.6 268.976C77.36 269.336 76.996 269.624 76.508 269.84C76.02 270.048 75.42 270.152 74.708 270.152ZM81.8611 263.636C82.7411 263.636 83.4131 263.852 83.8771 264.284C84.3491 264.716 84.5851 265.36 84.5851 266.216V270.056H83.4931V269.216C83.3011 269.512 83.0251 269.74 82.6651 269.9C82.3131 270.052 81.8931 270.128 81.4051 270.128C80.6931 270.128 80.1211 269.956 79.6891 269.612C79.2651 269.268 79.0531 268.816 79.0531 268.256C79.0531 267.696 79.2571 267.248 79.6651 266.912C80.0731 266.568 80.7211 266.396 81.6091 266.396H83.4331V266.168C83.4331 265.672 83.2891 265.292 83.0011 265.028C82.7131 264.764 82.2891 264.632 81.7291 264.632C81.3531 264.632 80.9851 264.696 80.6251 264.824C80.2651 264.944 79.9611 265.108 79.7131 265.316L79.2331 264.452C79.5611 264.188 79.9531 263.988 80.4091 263.852C80.8651 263.708 81.3491 263.636 81.8611 263.636ZM81.5971 269.24C82.0371 269.24 82.4171 269.144 82.7371 268.952C83.0571 268.752 83.2891 268.472 83.4331 268.112V267.224H81.6571C80.6811 267.224 80.1931 267.552 80.1931 268.208C80.1931 268.528 80.3171 268.78 80.5651 268.964C80.8131 269.148 81.1571 269.24 81.5971 269.24ZM86.717 261.152H87.869V270.056H86.717V261.152ZM92.3846 263.636C93.2646 263.636 93.9366 263.852 94.4006 264.284C94.8726 264.716 95.1086 265.36 95.1086 266.216V270.056H94.0166V269.216C93.8246 269.512 93.5486 269.74 93.1886 269.9C92.8366 270.052 92.4166 270.128 91.9286 270.128C91.2166 270.128 90.6446 269.956 90.2126 269.612C89.7886 269.268 89.5766 268.816 89.5766 268.256C89.5766 267.696 89.7806 267.248 90.1886 266.912C90.5966 266.568 91.2446 266.396 92.1326 266.396H93.9566V266.168C93.9566 265.672 93.8126 265.292 93.5246 265.028C93.2366 264.764 92.8126 264.632 92.2526 264.632C91.8766 264.632 91.5086 264.696 91.1486 264.824C90.7886 264.944 90.4846 265.108 90.2366 265.316L89.7566 264.452C90.0846 264.188 90.4766 263.988 90.9326 263.852C91.3886 263.708 91.8726 263.636 92.3846 263.636ZM92.1206 269.24C92.5606 269.24 92.9406 269.144 93.2606 268.952C93.5806 268.752 93.8126 268.472 93.9566 268.112V267.224H92.1806C91.2046 267.224 90.7166 267.552 90.7166 268.208C90.7166 268.528 90.8406 268.78 91.0886 268.964C91.3366 269.148 91.6806 269.24 92.1206 269.24ZM98.3444 264.764C98.5444 264.396 98.8404 264.116 99.2324 263.924C99.6244 263.732 100.1 263.636 100.66 263.636V264.752C100.596 264.744 100.508 264.74 100.396 264.74C99.7724 264.74 99.2804 264.928 98.9204 265.304C98.5684 265.672 98.3924 266.2 98.3924 266.888V270.056H97.2404V263.696H98.3444V264.764ZM107.966 263.696L104.882 270.692C104.61 271.34 104.29 271.796 103.922 272.06C103.562 272.324 103.126 272.456 102.614 272.456C102.302 272.456 101.998 272.404 101.702 272.3C101.414 272.204 101.174 272.06 100.982 271.868L101.474 271.004C101.802 271.316 102.182 271.472 102.614 271.472C102.894 271.472 103.126 271.396 103.31 271.244C103.502 271.1 103.674 270.848 103.826 270.488L104.03 270.044L101.222 263.696H102.422L104.642 268.784L106.838 263.696H107.966ZM112.432 261.656H113.632V270.056H112.432V261.656ZM119.375 263.636C120.183 263.636 120.823 263.872 121.295 264.344C121.775 264.808 122.015 265.492 122.015 266.396V270.056H120.863V266.528C120.863 265.912 120.715 265.448 120.419 265.136C120.123 264.824 119.699 264.668 119.147 264.668C118.523 264.668 118.031 264.852 117.671 265.22C117.311 265.58 117.131 266.1 117.131 266.78V270.056H115.979V263.696H117.083V264.656C117.315 264.328 117.627 264.076 118.019 263.9C118.419 263.724 118.871 263.636 119.375 263.636ZM126.954 270.128C126.306 270.128 125.726 269.988 125.214 269.708C124.71 269.428 124.314 269.044 124.026 268.556C123.738 268.06 123.594 267.5 123.594 266.876C123.594 266.252 123.738 265.696 124.026 265.208C124.314 264.712 124.71 264.328 125.214 264.056C125.726 263.776 126.306 263.636 126.954 263.636C127.53 263.636 128.042 263.752 128.49 263.984C128.946 264.216 129.298 264.552 129.546 264.992L128.67 265.556C128.47 265.252 128.222 265.024 127.926 264.872C127.63 264.72 127.302 264.644 126.942 264.644C126.526 264.644 126.15 264.736 125.814 264.92C125.486 265.104 125.226 265.368 125.034 265.712C124.85 266.048 124.758 266.436 124.758 266.876C124.758 267.324 124.85 267.72 125.034 268.064C125.226 268.4 125.486 268.66 125.814 268.844C126.15 269.028 126.526 269.12 126.942 269.12C127.302 269.12 127.63 269.044 127.926 268.892C128.222 268.74 128.47 268.512 128.67 268.208L129.546 268.76C129.298 269.2 128.946 269.54 128.49 269.78C128.042 270.012 127.53 270.128 126.954 270.128ZM133.668 270.128C133.036 270.128 132.468 269.988 131.964 269.708C131.46 269.428 131.064 269.044 130.776 268.556C130.496 268.06 130.356 267.5 130.356 266.876C130.356 266.252 130.496 265.696 130.776 265.208C131.064 264.712 131.46 264.328 131.964 264.056C132.468 263.776 133.036 263.636 133.668 263.636C134.3 263.636 134.864 263.776 135.36 264.056C135.864 264.328 136.256 264.712 136.536 265.208C136.824 265.696 136.968 266.252 136.968 266.876C136.968 267.5 136.824 268.06 136.536 268.556C136.256 269.044 135.864 269.428 135.36 269.708C134.864 269.988 134.3 270.128 133.668 270.128ZM133.668 269.12C134.076 269.12 134.44 269.028 134.76 268.844C135.088 268.652 135.344 268.388 135.528 268.052C135.712 267.708 135.804 267.316 135.804 266.876C135.804 266.436 135.712 266.048 135.528 265.712C135.344 265.368 135.088 265.104 134.76 264.92C134.44 264.736 134.076 264.644 133.668 264.644C133.26 264.644 132.892 264.736 132.564 264.92C132.244 265.104 131.988 265.368 131.796 265.712C131.612 266.048 131.52 266.436 131.52 266.876C131.52 267.316 131.612 267.708 131.796 268.052C131.988 268.388 132.244 268.652 132.564 268.844C132.892 269.028 133.26 269.12 133.668 269.12ZM146.517 263.636C147.317 263.636 147.949 263.868 148.413 264.332C148.885 264.796 149.121 265.484 149.121 266.396V270.056H147.969V266.528C147.969 265.912 147.825 265.448 147.537 265.136C147.257 264.824 146.853 264.668 146.325 264.668C145.741 264.668 145.277 264.852 144.933 265.22C144.589 265.58 144.417 266.1 144.417 266.78V270.056H143.265V266.528C143.265 265.912 143.121 265.448 142.833 265.136C142.553 264.824 142.149 264.668 141.621 264.668C141.037 264.668 140.573 264.852 140.229 265.22C139.885 265.58 139.713 266.1 139.713 266.78V270.056H138.561V263.696H139.665V264.644C139.897 264.316 140.201 264.068 140.577 263.9C140.953 263.724 141.381 263.636 141.861 263.636C142.357 263.636 142.797 263.736 143.181 263.936C143.565 264.136 143.861 264.428 144.069 264.812C144.309 264.444 144.641 264.156 145.065 263.948C145.497 263.74 145.981 263.636 146.517 263.636ZM157.024 266.912C157.024 267 157.016 267.116 157 267.26H151.84C151.912 267.82 152.156 268.272 152.572 268.616C152.996 268.952 153.52 269.12 154.144 269.12C154.904 269.12 155.516 268.864 155.98 268.352L156.616 269.096C156.328 269.432 155.968 269.688 155.536 269.864C155.112 270.04 154.636 270.128 154.108 270.128C153.436 270.128 152.84 269.992 152.32 269.72C151.8 269.44 151.396 269.052 151.108 268.556C150.828 268.06 150.688 267.5 150.688 266.876C150.688 266.26 150.824 265.704 151.096 265.208C151.376 264.712 151.756 264.328 152.236 264.056C152.724 263.776 153.272 263.636 153.88 263.636C154.488 263.636 155.028 263.776 155.5 264.056C155.98 264.328 156.352 264.712 156.616 265.208C156.888 265.704 157.024 266.272 157.024 266.912ZM153.88 264.608C153.328 264.608 152.864 264.776 152.488 265.112C152.12 265.448 151.904 265.888 151.84 266.432H155.92C155.856 265.896 155.636 265.46 155.26 265.124C154.892 264.78 154.432 264.608 153.88 264.608Z" fill="#455A64"/>
<path d="M314.372 262.34H312.224C312.576 262.588 312.828 262.916 312.98 263.324H314.372V264.008H313.136C313.152 264.088 313.16 264.208 313.16 264.368C313.16 265 312.992 265.536 312.656 265.976C312.328 266.416 311.86 266.736 311.252 266.936L313.316 270.056H312.008L310.1 267.152C310.004 267.16 309.86 267.164 309.668 267.164H307.592V266.132H309.632C310.416 266.132 311 265.972 311.384 265.652C311.768 265.324 311.96 264.888 311.96 264.344C311.96 264.264 311.952 264.152 311.936 264.008H306.68V263.324H311.72C311.352 262.66 310.624 262.332 309.536 262.34H306.68V261.656H314.372V262.34ZM321.371 261.656V270.056H320.183V262.7H318.287V261.656H321.371ZM324.013 268.484C324.237 268.484 324.421 268.564 324.565 268.724C324.717 268.876 324.793 269.068 324.793 269.3C324.793 269.42 324.777 269.536 324.745 269.648C324.721 269.76 324.669 269.932 324.589 270.164L324.025 271.832H323.269L323.713 270.044C323.561 269.988 323.437 269.896 323.341 269.768C323.253 269.632 323.209 269.476 323.209 269.3C323.209 269.06 323.285 268.864 323.437 268.712C323.589 268.56 323.781 268.484 324.013 268.484ZM329.219 270.152C328.555 270.152 327.963 269.984 327.443 269.648C326.931 269.304 326.527 268.808 326.231 268.16C325.935 267.512 325.787 266.744 325.787 265.856C325.787 264.968 325.935 264.2 326.231 263.552C326.527 262.904 326.931 262.412 327.443 262.076C327.963 261.732 328.555 261.56 329.219 261.56C329.875 261.56 330.459 261.732 330.971 262.076C331.491 262.412 331.899 262.904 332.195 263.552C332.491 264.2 332.639 264.968 332.639 265.856C332.639 266.744 332.491 267.512 332.195 268.16C331.899 268.808 331.491 269.304 330.971 269.648C330.459 269.984 329.875 270.152 329.219 270.152ZM329.219 269.084C329.891 269.084 330.427 268.808 330.827 268.256C331.235 267.704 331.439 266.904 331.439 265.856C331.439 264.808 331.235 264.008 330.827 263.456C330.427 262.904 329.891 262.628 329.219 262.628C328.539 262.628 327.995 262.904 327.587 263.456C327.187 264.008 326.987 264.808 326.987 265.856C326.987 266.904 327.187 267.704 327.587 268.256C327.995 268.808 328.539 269.084 329.219 269.084ZM337.223 270.152C336.559 270.152 335.967 269.984 335.447 269.648C334.935 269.304 334.531 268.808 334.235 268.16C333.939 267.512 333.791 266.744 333.791 265.856C333.791 264.968 333.939 264.2 334.235 263.552C334.531 262.904 334.935 262.412 335.447 262.076C335.967 261.732 336.559 261.56 337.223 261.56C337.879 261.56 338.463 261.732 338.975 262.076C339.495 262.412 339.903 262.904 340.199 263.552C340.495 264.2 340.643 264.968 340.643 265.856C340.643 266.744 340.495 267.512 340.199 268.16C339.903 268.808 339.495 269.304 338.975 269.648C338.463 269.984 337.879 270.152 337.223 270.152ZM337.223 269.084C337.895 269.084 338.431 268.808 338.831 268.256C339.239 267.704 339.443 266.904 339.443 265.856C339.443 264.808 339.239 264.008 338.831 263.456C338.431 262.904 337.895 262.628 337.223 262.628C336.543 262.628 335.999 262.904 335.591 263.456C335.191 264.008 334.991 264.808 334.991 265.856C334.991 266.904 335.191 267.704 335.591 268.256C335.999 268.808 336.543 269.084 337.223 269.084ZM342.458 268.484C342.682 268.484 342.866 268.564 343.01 268.724C343.162 268.876 343.238 269.068 343.238 269.3C343.238 269.42 343.222 269.536 343.19 269.648C343.166 269.76 343.114 269.932 343.034 270.164L342.47 271.832H341.714L342.158 270.044C342.006 269.988 341.882 269.896 341.786 269.768C341.698 269.632 341.654 269.476 341.654 269.3C341.654 269.06 341.73 268.864 341.882 268.712C342.034 268.56 342.226 268.484 342.458 268.484ZM347.664 270.152C347 270.152 346.408 269.984 345.888 269.648C345.376 269.304 344.972 268.808 344.676 268.16C344.38 267.512 344.232 266.744 344.232 265.856C344.232 264.968 344.38 264.2 344.676 263.552C344.972 262.904 345.376 262.412 345.888 262.076C346.408 261.732 347 261.56 347.664 261.56C348.32 261.56 348.904 261.732 349.416 262.076C349.936 262.412 350.344 262.904 350.64 263.552C350.936 264.2 351.084 264.968 351.084 265.856C351.084 266.744 350.936 267.512 350.64 268.16C350.344 268.808 349.936 269.304 349.416 269.648C348.904 269.984 348.32 270.152 347.664 270.152ZM347.664 269.084C348.336 269.084 348.872 268.808 349.272 268.256C349.68 267.704 349.884 266.904 349.884 265.856C349.884 264.808 349.68 264.008 349.272 263.456C348.872 262.904 348.336 262.628 347.664 262.628C346.984 262.628 346.44 262.904 346.032 263.456C345.632 264.008 345.432 264.808 345.432 265.856C345.432 266.904 345.632 267.704 346.032 268.256C346.44 268.808 346.984 269.084 347.664 269.084ZM355.668 270.152C355.004 270.152 354.412 269.984 353.892 269.648C353.38 269.304 352.976 268.808 352.68 268.16C352.384 267.512 352.236 266.744 352.236 265.856C352.236 264.968 352.384 264.2 352.68 263.552C352.976 262.904 353.38 262.412 353.892 262.076C354.412 261.732 355.004 261.56 355.668 261.56C356.324 261.56 356.908 261.732 357.42 262.076C357.94 262.412 358.348 262.904 358.644 263.552C358.94 264.2 359.088 264.968 359.088 265.856C359.088 266.744 358.94 267.512 358.644 268.16C358.348 268.808 357.94 269.304 357.42 269.648C356.908 269.984 356.324 270.152 355.668 270.152ZM355.668 269.084C356.34 269.084 356.876 268.808 357.276 268.256C357.684 267.704 357.888 266.904 357.888 265.856C357.888 264.808 357.684 264.008 357.276 263.456C356.876 262.904 356.34 262.628 355.668 262.628C354.988 262.628 354.444 262.904 354.036 263.456C353.636 264.008 353.436 264.808 353.436 265.856C353.436 266.904 353.636 267.704 354.036 268.256C354.444 268.808 354.988 269.084 355.668 269.084ZM363.672 270.152C363.008 270.152 362.416 269.984 361.896 269.648C361.384 269.304 360.98 268.808 360.684 268.16C360.388 267.512 360.24 266.744 360.24 265.856C360.24 264.968 360.388 264.2 360.684 263.552C360.98 262.904 361.384 262.412 361.896 262.076C362.416 261.732 363.008 261.56 363.672 261.56C364.328 261.56 364.912 261.732 365.424 262.076C365.944 262.412 366.352 262.904 366.648 263.552C366.944 264.2 367.092 264.968 367.092 265.856C367.092 266.744 366.944 267.512 366.648 268.16C366.352 268.808 365.944 269.304 365.424 269.648C364.912 269.984 364.328 270.152 363.672 270.152ZM363.672 269.084C364.344 269.084 364.88 268.808 365.28 268.256C365.688 267.704 365.892 266.904 365.892 265.856C365.892 264.808 365.688 264.008 365.28 263.456C364.88 262.904 364.344 262.628 363.672 262.628C362.992 262.628 362.448 262.904 362.04 263.456C361.64 264.008 361.44 264.808 361.44 265.856C361.44 266.904 361.64 267.704 362.04 268.256C362.448 268.808 362.992 269.084 363.672 269.084Z" fill="#455A64"/>
<path d="M77.912 359.7C78.4 359.836 78.784 360.084 79.064 360.444C79.344 360.796 79.484 361.244 79.484 361.788C79.484 362.516 79.208 363.076 78.656 363.468C78.112 363.86 77.316 364.056 76.268 364.056H72.26V355.656H76.028C76.988 355.656 77.728 355.848 78.248 356.232C78.776 356.616 79.04 357.148 79.04 357.828C79.04 358.268 78.936 358.648 78.728 358.968C78.528 359.288 78.256 359.532 77.912 359.7ZM73.46 356.628V359.316H75.92C76.536 359.316 77.008 359.204 77.336 358.98C77.672 358.748 77.84 358.412 77.84 357.972C77.84 357.532 77.672 357.2 77.336 356.976C77.008 356.744 76.536 356.628 75.92 356.628H73.46ZM76.22 363.084C76.9 363.084 77.412 362.972 77.756 362.748C78.1 362.524 78.272 362.172 78.272 361.692C78.272 360.756 77.588 360.288 76.22 360.288H73.46V363.084H76.22ZM87.102 357.696V364.056H86.01V363.096C85.778 363.424 85.47 363.68 85.086 363.864C84.71 364.04 84.298 364.128 83.85 364.128C83.002 364.128 82.334 363.896 81.846 363.432C81.358 362.96 81.114 362.268 81.114 361.356V357.696H82.266V361.224C82.266 361.84 82.414 362.308 82.71 362.628C83.006 362.94 83.43 363.096 83.982 363.096C84.59 363.096 85.07 362.912 85.422 362.544C85.774 362.176 85.95 361.656 85.95 360.984V357.696H87.102ZM91.1191 364.128C90.5991 364.128 90.0991 364.06 89.6191 363.924C89.1391 363.78 88.7631 363.6 88.4911 363.384L88.9711 362.472C89.2511 362.672 89.5911 362.832 89.9911 362.952C90.3911 363.072 90.7951 363.132 91.2031 363.132C92.2111 363.132 92.7151 362.844 92.7151 362.268C92.7151 362.076 92.6471 361.924 92.5111 361.812C92.3751 361.7 92.2031 361.62 91.9951 361.572C91.7951 361.516 91.5071 361.456 91.1311 361.392C90.6191 361.312 90.1991 361.22 89.8711 361.116C89.5511 361.012 89.2751 360.836 89.0431 360.588C88.8111 360.34 88.6951 359.992 88.6951 359.544C88.6951 358.968 88.9351 358.508 89.4151 358.164C89.8951 357.812 90.5391 357.636 91.3471 357.636C91.7711 357.636 92.1951 357.688 92.6191 357.792C93.0431 357.896 93.3911 358.036 93.6631 358.212L93.1711 359.124C92.6511 358.788 92.0391 358.62 91.3351 358.62C90.8471 358.62 90.4751 358.7 90.2191 358.86C89.9631 359.02 89.8351 359.232 89.8351 359.496C89.8351 359.704 89.9071 359.868 90.0511 359.988C90.1951 360.108 90.3711 360.196 90.5791 360.252C90.7951 360.308 91.0951 360.372 91.4791 360.444C91.9911 360.532 92.4031 360.628 92.7151 360.732C93.0351 360.828 93.3071 360.996 93.5311 361.236C93.7551 361.476 93.8671 361.812 93.8671 362.244C93.8671 362.82 93.6191 363.28 93.1231 363.624C92.6351 363.96 91.9671 364.128 91.1191 364.128ZM95.3068 357.696H96.4588V364.056H95.3068V357.696ZM95.8828 356.472C95.6588 356.472 95.4708 356.4 95.3188 356.256C95.1748 356.112 95.1028 355.936 95.1028 355.728C95.1028 355.52 95.1748 355.344 95.3188 355.2C95.4708 355.048 95.6588 354.972 95.8828 354.972C96.1068 354.972 96.2908 355.044 96.4348 355.188C96.5868 355.324 96.6628 355.496 96.6628 355.704C96.6628 355.92 96.5868 356.104 96.4348 356.256C96.2908 356.4 96.1068 356.472 95.8828 356.472ZM102.054 357.636C102.862 357.636 103.502 357.872 103.974 358.344C104.454 358.808 104.694 359.492 104.694 360.396V364.056H103.542V360.528C103.542 359.912 103.394 359.448 103.098 359.136C102.802 358.824 102.378 358.668 101.826 358.668C101.202 358.668 100.71 358.852 100.35 359.22C99.9904 359.58 99.8104 360.1 99.8104 360.78V364.056H98.6584V357.696H99.7624V358.656C99.9944 358.328 100.306 358.076 100.698 357.9C101.098 357.724 101.55 357.636 102.054 357.636ZM112.61 360.912C112.61 361 112.602 361.116 112.586 361.26H107.426C107.498 361.82 107.742 362.272 108.158 362.616C108.582 362.952 109.106 363.12 109.73 363.12C110.49 363.12 111.102 362.864 111.566 362.352L112.202 363.096C111.914 363.432 111.554 363.688 111.122 363.864C110.698 364.04 110.222 364.128 109.694 364.128C109.022 364.128 108.426 363.992 107.906 363.72C107.386 363.44 106.982 363.052 106.694 362.556C106.414 362.06 106.274 361.5 106.274 360.876C106.274 360.26 106.41 359.704 106.682 359.208C106.962 358.712 107.342 358.328 107.822 358.056C108.31 357.776 108.858 357.636 109.466 357.636C110.074 357.636 110.614 357.776 111.086 358.056C111.566 358.328 111.938 358.712 112.202 359.208C112.474 359.704 112.61 360.272 112.61 360.912ZM109.466 358.608C108.914 358.608 108.45 358.776 108.074 359.112C107.706 359.448 107.49 359.888 107.426 360.432H111.506C111.442 359.896 111.222 359.46 110.846 359.124C110.478 358.78 110.018 358.608 109.466 358.608ZM116.033 364.128C115.513 364.128 115.013 364.06 114.533 363.924C114.053 363.78 113.677 363.6 113.405 363.384L113.885 362.472C114.165 362.672 114.505 362.832 114.905 362.952C115.305 363.072 115.709 363.132 116.117 363.132C117.125 363.132 117.629 362.844 117.629 362.268C117.629 362.076 117.561 361.924 117.425 361.812C117.289 361.7 117.117 361.62 116.909 361.572C116.709 361.516 116.421 361.456 116.045 361.392C115.533 361.312 115.113 361.22 114.785 361.116C114.465 361.012 114.189 360.836 113.957 360.588C113.725 360.34 113.609 359.992 113.609 359.544C113.609 358.968 113.849 358.508 114.329 358.164C114.809 357.812 115.453 357.636 116.261 357.636C116.685 357.636 117.109 357.688 117.533 357.792C117.957 357.896 118.305 358.036 118.577 358.212L118.085 359.124C117.565 358.788 116.953 358.62 116.249 358.62C115.761 358.62 115.389 358.7 115.133 358.86C114.877 359.02 114.749 359.232 114.749 359.496C114.749 359.704 114.821 359.868 114.965 359.988C115.109 360.108 115.285 360.196 115.493 360.252C115.709 360.308 116.009 360.372 116.393 360.444C116.905 360.532 117.317 360.628 117.629 360.732C117.949 360.828 118.221 360.996 118.445 361.236C118.669 361.476 118.781 361.812 118.781 362.244C118.781 362.82 118.533 363.28 118.037 363.624C117.549 363.96 116.881 364.128 116.033 364.128ZM122.045 364.128C121.525 364.128 121.025 364.06 120.545 363.924C120.065 363.78 119.689 363.6 119.417 363.384L119.897 362.472C120.177 362.672 120.517 362.832 120.917 362.952C121.317 363.072 121.721 363.132 122.129 363.132C123.137 363.132 123.641 362.844 123.641 362.268C123.641 362.076 123.573 361.924 123.437 361.812C123.301 361.7 123.129 361.62 122.921 361.572C122.721 361.516 122.433 361.456 122.057 361.392C121.545 361.312 121.125 361.22 120.797 361.116C120.477 361.012 120.201 360.836 119.969 360.588C119.737 360.34 119.621 359.992 119.621 359.544C119.621 358.968 119.861 358.508 120.341 358.164C120.821 357.812 121.465 357.636 122.273 357.636C122.697 357.636 123.121 357.688 123.545 357.792C123.969 357.896 124.317 358.036 124.589 358.212L124.097 359.124C123.577 358.788 122.965 358.62 122.261 358.62C121.773 358.62 121.401 358.7 121.145 358.86C120.889 359.02 120.761 359.232 120.761 359.496C120.761 359.704 120.833 359.868 120.977 359.988C121.121 360.108 121.297 360.196 121.505 360.252C121.721 360.308 122.021 360.372 122.405 360.444C122.917 360.532 123.329 360.628 123.641 360.732C123.961 360.828 124.233 360.996 124.457 361.236C124.681 361.476 124.793 361.812 124.793 362.244C124.793 362.82 124.545 363.28 124.049 363.624C123.561 363.96 122.893 364.128 122.045 364.128ZM129.623 355.656H130.823V364.056H129.623V355.656ZM136.566 357.636C137.374 357.636 138.014 357.872 138.486 358.344C138.966 358.808 139.206 359.492 139.206 360.396V364.056H138.054V360.528C138.054 359.912 137.906 359.448 137.61 359.136C137.314 358.824 136.89 358.668 136.338 358.668C135.714 358.668 135.222 358.852 134.862 359.22C134.502 359.58 134.322 360.1 134.322 360.78V364.056H133.17V357.696H134.274V358.656C134.506 358.328 134.818 358.076 135.21 357.9C135.61 357.724 136.062 357.636 136.566 357.636ZM144.145 364.128C143.497 364.128 142.917 363.988 142.405 363.708C141.901 363.428 141.505 363.044 141.217 362.556C140.929 362.06 140.785 361.5 140.785 360.876C140.785 360.252 140.929 359.696 141.217 359.208C141.505 358.712 141.901 358.328 142.405 358.056C142.917 357.776 143.497 357.636 144.145 357.636C144.721 357.636 145.233 357.752 145.681 357.984C146.137 358.216 146.489 358.552 146.737 358.992L145.861 359.556C145.661 359.252 145.413 359.024 145.117 358.872C144.821 358.72 144.493 358.644 144.133 358.644C143.717 358.644 143.341 358.736 143.005 358.92C142.677 359.104 142.417 359.368 142.225 359.712C142.041 360.048 141.949 360.436 141.949 360.876C141.949 361.324 142.041 361.72 142.225 362.064C142.417 362.4 142.677 362.66 143.005 362.844C143.341 363.028 143.717 363.12 144.133 363.12C144.493 363.12 144.821 363.044 145.117 362.892C145.413 362.74 145.661 362.512 145.861 362.208L146.737 362.76C146.489 363.2 146.137 363.54 145.681 363.78C145.233 364.012 144.721 364.128 144.145 364.128ZM150.859 364.128C150.227 364.128 149.659 363.988 149.155 363.708C148.651 363.428 148.255 363.044 147.967 362.556C147.687 362.06 147.547 361.5 147.547 360.876C147.547 360.252 147.687 359.696 147.967 359.208C148.255 358.712 148.651 358.328 149.155 358.056C149.659 357.776 150.227 357.636 150.859 357.636C151.491 357.636 152.055 357.776 152.551 358.056C153.055 358.328 153.447 358.712 153.727 359.208C154.015 359.696 154.159 360.252 154.159 360.876C154.159 361.5 154.015 362.06 153.727 362.556C153.447 363.044 153.055 363.428 152.551 363.708C152.055 363.988 151.491 364.128 150.859 364.128ZM150.859 363.12C151.267 363.12 151.631 363.028 151.951 362.844C152.279 362.652 152.535 362.388 152.719 362.052C152.903 361.708 152.995 361.316 152.995 360.876C152.995 360.436 152.903 360.048 152.719 359.712C152.535 359.368 152.279 359.104 151.951 358.92C151.631 358.736 151.267 358.644 150.859 358.644C150.451 358.644 150.083 358.736 149.755 358.92C149.435 359.104 149.179 359.368 148.987 359.712C148.803 360.048 148.711 360.436 148.711 360.876C148.711 361.316 148.803 361.708 148.987 362.052C149.179 362.388 149.435 362.652 149.755 362.844C150.083 363.028 150.451 363.12 150.859 363.12ZM163.708 357.636C164.508 357.636 165.14 357.868 165.604 358.332C166.076 358.796 166.312 359.484 166.312 360.396V364.056H165.16V360.528C165.16 359.912 165.016 359.448 164.728 359.136C164.448 358.824 164.044 358.668 163.516 358.668C162.932 358.668 162.468 358.852 162.124 359.22C161.78 359.58 161.608 360.1 161.608 360.78V364.056H160.456V360.528C160.456 359.912 160.312 359.448 160.024 359.136C159.744 358.824 159.34 358.668 158.812 358.668C158.228 358.668 157.764 358.852 157.42 359.22C157.076 359.58 156.904 360.1 156.904 360.78V364.056H155.752V357.696H156.856V358.644C157.088 358.316 157.392 358.068 157.768 357.9C158.144 357.724 158.572 357.636 159.052 357.636C159.548 357.636 159.988 357.736 160.372 357.936C160.756 358.136 161.052 358.428 161.26 358.812C161.5 358.444 161.832 358.156 162.256 357.948C162.688 357.74 163.172 357.636 163.708 357.636ZM174.215 360.912C174.215 361 174.207 361.116 174.191 361.26H169.031C169.103 361.82 169.347 362.272 169.763 362.616C170.187 362.952 170.711 363.12 171.335 363.12C172.095 363.12 172.707 362.864 173.171 362.352L173.807 363.096C173.519 363.432 173.159 363.688 172.727 363.864C172.303 364.04 171.827 364.128 171.299 364.128C170.627 364.128 170.031 363.992 169.511 363.72C168.991 363.44 168.587 363.052 168.299 362.556C168.019 362.06 167.879 361.5 167.879 360.876C167.879 360.26 168.015 359.704 168.287 359.208C168.567 358.712 168.947 358.328 169.427 358.056C169.915 357.776 170.463 357.636 171.071 357.636C171.679 357.636 172.219 357.776 172.691 358.056C173.171 358.328 173.543 358.712 173.807 359.208C174.079 359.704 174.215 360.272 174.215 360.912ZM171.071 358.608C170.519 358.608 170.055 358.776 169.679 359.112C169.311 359.448 169.095 359.888 169.031 360.432H173.111C173.047 359.896 172.827 359.46 172.451 359.124C172.083 358.78 171.623 358.608 171.071 358.608Z" fill="#455A64"/>
<path d="M331.099 356.34H328.951C329.303 356.588 329.555 356.916 329.707 357.324H331.099V358.008H329.863C329.879 358.088 329.887 358.208 329.887 358.368C329.887 359 329.719 359.536 329.383 359.976C329.055 360.416 328.587 360.736 327.979 360.936L330.043 364.056H328.735L326.827 361.152C326.731 361.16 326.587 361.164 326.395 361.164H324.319V360.132H326.359C327.143 360.132 327.727 359.972 328.111 359.652C328.495 359.324 328.687 358.888 328.687 358.344C328.687 358.264 328.679 358.152 328.663 358.008H323.407V357.324H328.447C328.079 356.66 327.351 356.332 326.263 356.34H323.407V355.656H331.099V356.34ZM337.894 359.004C339.094 359.004 339.974 359.232 340.534 359.688C341.102 360.136 341.386 360.752 341.386 361.536C341.386 362.032 341.266 362.48 341.026 362.88C340.794 363.272 340.438 363.584 339.958 363.816C339.486 364.04 338.902 364.152 338.206 364.152C337.614 364.152 337.042 364.064 336.49 363.888C335.938 363.704 335.482 363.452 335.122 363.132L335.674 362.184C335.962 362.456 336.33 362.676 336.778 362.844C337.226 363.004 337.698 363.084 338.194 363.084C338.826 363.084 339.314 362.952 339.658 362.688C340.01 362.416 340.186 362.048 340.186 361.584C340.186 361.08 339.994 360.7 339.61 360.444C339.226 360.18 338.57 360.048 337.642 360.048H335.734L336.178 355.656H340.918V356.7H337.186L336.958 359.004H337.894ZM343.189 362.484C343.413 362.484 343.597 362.564 343.741 362.724C343.893 362.876 343.969 363.068 343.969 363.3C343.969 363.42 343.953 363.536 343.921 363.648C343.897 363.76 343.845 363.932 343.765 364.164L343.201 365.832H342.445L342.889 364.044C342.737 363.988 342.613 363.896 342.517 363.768C342.429 363.632 342.385 363.476 342.385 363.3C342.385 363.06 342.461 362.864 342.613 362.712C342.765 362.56 342.957 362.484 343.189 362.484ZM347.827 355.56C348.955 355.56 349.823 355.924 350.431 356.652C351.047 357.38 351.355 358.412 351.355 359.748C351.355 360.684 351.187 361.484 350.851 362.148C350.523 362.804 350.059 363.304 349.459 363.648C348.867 363.984 348.175 364.152 347.383 364.152C346.975 364.152 346.591 364.112 346.231 364.032C345.871 363.944 345.559 363.82 345.295 363.66L345.751 362.724C346.159 362.988 346.699 363.12 347.371 363.12C348.243 363.12 348.923 362.852 349.411 362.316C349.907 361.772 350.155 360.984 350.155 359.952V359.652C349.915 360.012 349.583 360.288 349.159 360.48C348.735 360.664 348.259 360.756 347.731 360.756C347.179 360.756 346.683 360.652 346.243 360.444C345.811 360.236 345.471 359.94 345.223 359.556C344.983 359.164 344.863 358.716 344.863 358.212C344.863 357.684 344.991 357.22 345.247 356.82C345.511 356.42 345.867 356.112 346.315 355.896C346.763 355.672 347.267 355.56 347.827 355.56ZM347.935 359.784C348.311 359.784 348.647 359.712 348.943 359.568C349.239 359.424 349.467 359.228 349.627 358.98C349.795 358.732 349.879 358.456 349.879 358.152C349.879 357.856 349.799 357.588 349.639 357.348C349.487 357.1 349.259 356.904 348.955 356.76C348.659 356.608 348.299 356.532 347.875 356.532C347.323 356.532 346.875 356.68 346.531 356.976C346.195 357.272 346.027 357.668 346.027 358.164C346.027 358.66 346.199 359.056 346.543 359.352C346.887 359.64 347.351 359.784 347.935 359.784ZM355.942 364.152C355.278 364.152 354.686 363.984 354.166 363.648C353.654 363.304 353.25 362.808 352.954 362.16C352.658 361.512 352.51 360.744 352.51 359.856C352.51 358.968 352.658 358.2 352.954 357.552C353.25 356.904 353.654 356.412 354.166 356.076C354.686 355.732 355.278 355.56 355.942 355.56C356.598 355.56 357.182 355.732 357.694 356.076C358.214 356.412 358.622 356.904 358.918 357.552C359.214 358.2 359.362 358.968 359.362 359.856C359.362 360.744 359.214 361.512 358.918 362.16C358.622 362.808 358.214 363.304 357.694 363.648C357.182 363.984 356.598 364.152 355.942 364.152ZM355.942 363.084C356.614 363.084 357.15 362.808 357.55 362.256C357.958 361.704 358.162 360.904 358.162 359.856C358.162 358.808 357.958 358.008 357.55 357.456C357.15 356.904 356.614 356.628 355.942 356.628C355.262 356.628 354.718 356.904 354.31 357.456C353.91 358.008 353.71 358.808 353.71 359.856C353.71 360.904 353.91 361.704 354.31 362.256C354.718 362.808 355.262 363.084 355.942 363.084ZM363.946 364.152C363.282 364.152 362.69 363.984 362.17 363.648C361.658 363.304 361.254 362.808 360.958 362.16C360.662 361.512 360.514 360.744 360.514 359.856C360.514 358.968 360.662 358.2 360.958 357.552C361.254 356.904 361.658 356.412 362.17 356.076C362.69 355.732 363.282 355.56 363.946 355.56C364.602 355.56 365.186 355.732 365.698 356.076C366.218 356.412 366.626 356.904 366.922 357.552C367.218 358.2 367.366 358.968 367.366 359.856C367.366 360.744 367.218 361.512 366.922 362.16C366.626 362.808 366.218 363.304 365.698 363.648C365.186 363.984 364.602 364.152 363.946 364.152ZM363.946 363.084C364.618 363.084 365.154 362.808 365.554 362.256C365.962 361.704 366.166 360.904 366.166 359.856C366.166 358.808 365.962 358.008 365.554 357.456C365.154 356.904 364.618 356.628 363.946 356.628C363.266 356.628 362.722 356.904 362.314 357.456C361.914 358.008 361.714 358.808 361.714 359.856C361.714 360.904 361.914 361.704 362.314 362.256C362.722 362.808 363.266 363.084 363.946 363.084Z" fill="#455A64"/>
<path d="M309.459 182.055H307.465C307.728 182.292 307.931 182.584 308.075 182.931H309.459V183.82H308.266C308.274 183.88 308.278 183.964 308.278 184.074C308.278 184.743 308.105 185.31 307.758 185.776C307.419 186.233 306.936 186.576 306.31 186.805L308.443 190.056H306.665L304.722 187.084H304.506H302.119V185.687H304.405C305.158 185.687 305.713 185.535 306.068 185.23C306.432 184.925 306.615 184.515 306.615 183.998V183.82H301.369V182.931H306.348C306.17 182.643 305.908 182.423 305.56 182.271C305.222 182.119 304.798 182.047 304.29 182.055H301.369V181.166H309.459V182.055ZM317.232 181.166V190.056H315.581V182.55H313.702V181.166H317.232ZM319.999 188.037C320.295 188.037 320.541 188.134 320.736 188.329C320.93 188.524 321.028 188.778 321.028 189.091C321.028 189.226 321.007 189.37 320.964 189.523C320.93 189.667 320.854 189.887 320.736 190.183L320.088 191.974H319.059L319.567 190.031C319.381 189.954 319.233 189.836 319.123 189.675C319.021 189.506 318.97 189.311 318.97 189.091C318.97 188.778 319.068 188.524 319.263 188.329C319.457 188.134 319.703 188.037 319.999 188.037ZM329.959 188.037H328.384V190.056H326.784V188.037H321.907V186.894L326.289 181.166H328.054L323.927 186.64H326.835V184.849H328.384V186.64H329.959V188.037ZM333.589 181.039C334.808 181.039 335.752 181.42 336.421 182.182C337.099 182.944 337.437 184.036 337.437 185.459C337.437 186.458 337.255 187.313 336.891 188.024C336.527 188.727 336.015 189.264 335.355 189.637C334.703 190.001 333.945 190.183 333.081 190.183C332.624 190.183 332.192 190.136 331.786 190.043C331.388 189.942 331.041 189.798 330.744 189.612L331.354 188.367C331.794 188.655 332.357 188.799 333.043 188.799C333.898 188.799 334.567 188.536 335.05 188.011C335.532 187.486 335.774 186.729 335.774 185.738V185.725C335.511 186.03 335.177 186.263 334.77 186.424C334.364 186.576 333.907 186.652 333.399 186.652C332.815 186.652 332.29 186.542 331.824 186.322C331.358 186.094 330.994 185.772 330.732 185.357C330.469 184.942 330.338 184.464 330.338 183.922C330.338 183.346 330.482 182.842 330.77 182.411C331.058 181.97 331.447 181.632 331.938 181.395C332.429 181.158 332.98 181.039 333.589 181.039ZM333.716 185.357C334.25 185.357 334.681 185.213 335.012 184.925C335.35 184.637 335.52 184.273 335.52 183.833C335.52 183.401 335.355 183.046 335.024 182.766C334.703 182.478 334.254 182.334 333.678 182.334C333.162 182.334 332.743 182.474 332.421 182.754C332.099 183.024 331.938 183.389 331.938 183.846C331.938 184.311 332.099 184.68 332.421 184.951C332.743 185.222 333.174 185.357 333.716 185.357ZM339.409 188.037C339.705 188.037 339.951 188.134 340.145 188.329C340.34 188.524 340.437 188.778 340.437 189.091C340.437 189.226 340.416 189.37 340.374 189.523C340.34 189.667 340.264 189.887 340.145 190.183L339.498 191.974H338.469L338.977 190.031C338.791 189.954 338.643 189.836 338.532 189.675C338.431 189.506 338.38 189.311 338.38 189.091C338.38 188.778 338.477 188.524 338.672 188.329C338.867 188.134 339.112 188.037 339.409 188.037ZM344.503 181.039C345.722 181.039 346.666 181.42 347.335 182.182C348.013 182.944 348.351 184.036 348.351 185.459C348.351 186.458 348.169 187.313 347.805 188.024C347.441 188.727 346.929 189.264 346.269 189.637C345.617 190.001 344.859 190.183 343.995 190.183C343.538 190.183 343.106 190.136 342.7 190.043C342.302 189.942 341.955 189.798 341.658 189.612L342.268 188.367C342.708 188.655 343.271 188.799 343.957 188.799C344.812 188.799 345.481 188.536 345.964 188.011C346.446 187.486 346.688 186.729 346.688 185.738V185.725C346.425 186.03 346.091 186.263 345.684 186.424C345.278 186.576 344.821 186.652 344.313 186.652C343.729 186.652 343.204 186.542 342.738 186.322C342.272 186.094 341.908 185.772 341.646 185.357C341.383 184.942 341.252 184.464 341.252 183.922C341.252 183.346 341.396 182.842 341.684 182.411C341.972 181.97 342.361 181.632 342.852 181.395C343.343 181.158 343.894 181.039 344.503 181.039ZM344.63 185.357C345.164 185.357 345.595 185.213 345.926 184.925C346.264 184.637 346.434 184.273 346.434 183.833C346.434 183.401 346.269 183.046 345.938 182.766C345.617 182.478 345.168 182.334 344.592 182.334C344.076 182.334 343.657 182.474 343.335 182.754C343.013 183.024 342.852 183.389 342.852 183.846C342.852 184.311 343.013 184.68 343.335 184.951C343.657 185.222 344.088 185.357 344.63 185.357ZM353.177 190.183C352.466 190.183 351.831 190.005 351.272 189.65C350.713 189.286 350.273 188.761 349.951 188.075C349.629 187.381 349.468 186.559 349.468 185.611C349.468 184.663 349.629 183.846 349.951 183.16C350.273 182.466 350.713 181.941 351.272 181.585C351.831 181.221 352.466 181.039 353.177 181.039C353.888 181.039 354.523 181.221 355.082 181.585C355.649 181.941 356.094 182.466 356.415 183.16C356.737 183.846 356.898 184.663 356.898 185.611C356.898 186.559 356.737 187.381 356.415 188.075C356.094 188.761 355.649 189.286 355.082 189.65C354.523 190.005 353.888 190.183 353.177 190.183ZM353.177 188.748C353.812 188.748 354.311 188.485 354.675 187.961C355.048 187.436 355.234 186.652 355.234 185.611C355.234 184.57 355.048 183.786 354.675 183.262C354.311 182.737 353.812 182.474 353.177 182.474C352.55 182.474 352.051 182.737 351.678 183.262C351.314 183.786 351.132 184.57 351.132 185.611C351.132 186.652 351.314 187.436 351.678 187.961C352.051 188.485 352.55 188.748 353.177 188.748ZM361.722 190.183C361.011 190.183 360.376 190.005 359.817 189.65C359.258 189.286 358.818 188.761 358.496 188.075C358.174 187.381 358.014 186.559 358.014 185.611C358.014 184.663 358.174 183.846 358.496 183.16C358.818 182.466 359.258 181.941 359.817 181.585C360.376 181.221 361.011 181.039 361.722 181.039C362.433 181.039 363.068 181.221 363.627 181.585C364.194 181.941 364.639 182.466 364.96 183.16C365.282 183.846 365.443 184.663 365.443 185.611C365.443 186.559 365.282 187.381 364.96 188.075C364.639 188.761 364.194 189.286 363.627 189.65C363.068 190.005 362.433 190.183 361.722 190.183ZM361.722 188.748C362.357 188.748 362.857 188.485 363.221 187.961C363.593 187.436 363.779 186.652 363.779 185.611C363.779 184.57 363.593 183.786 363.221 183.262C362.857 182.737 362.357 182.474 361.722 182.474C361.095 182.474 360.596 182.737 360.223 183.262C359.859 183.786 359.677 184.57 359.677 185.611C359.677 186.652 359.859 187.436 360.223 187.961C360.596 188.485 361.095 188.748 361.722 188.748Z" fill="#455A64"/>
<path d="M311.088 203.811H309.034V203.066H313.989V203.811H311.935V209.056H311.088V203.811ZM316.275 209.107C315.825 209.107 315.42 209.008 315.06 208.808C314.701 208.608 314.418 208.334 314.213 207.986C314.013 207.633 313.914 207.233 313.914 206.788C313.914 206.343 314.013 205.947 314.213 205.599C314.418 205.245 314.701 204.972 315.06 204.778C315.42 204.578 315.825 204.478 316.275 204.478C316.726 204.478 317.128 204.578 317.482 204.778C317.841 204.972 318.121 205.245 318.32 205.599C318.526 205.947 318.629 206.343 318.629 206.788C318.629 207.233 318.526 207.633 318.32 207.986C318.121 208.334 317.841 208.608 317.482 208.808C317.128 209.008 316.726 209.107 316.275 209.107ZM316.275 208.389C316.566 208.389 316.826 208.323 317.054 208.192C317.288 208.055 317.47 207.867 317.602 207.627C317.733 207.382 317.798 207.102 317.798 206.788C317.798 206.475 317.733 206.198 317.602 205.958C317.47 205.713 317.288 205.525 317.054 205.394C316.826 205.262 316.566 205.197 316.275 205.197C315.984 205.197 315.722 205.262 315.488 205.394C315.26 205.525 315.077 205.713 314.94 205.958C314.809 206.198 314.744 206.475 314.744 206.788C314.744 207.102 314.809 207.382 314.94 207.627C315.077 207.867 315.26 208.055 315.488 208.192C315.722 208.323 315.984 208.389 316.275 208.389ZM322.315 208.791C322.195 208.893 322.046 208.973 321.87 209.03C321.693 209.082 321.51 209.107 321.322 209.107C320.866 209.107 320.512 208.985 320.261 208.739C320.01 208.494 319.884 208.143 319.884 207.687V205.197H319.114V204.521H319.884V203.528H320.706V204.521H322.007V205.197H320.706V207.653C320.706 207.898 320.766 208.086 320.886 208.217C321.011 208.349 321.188 208.414 321.416 208.414C321.667 208.414 321.881 208.343 322.058 208.2L322.315 208.791ZM324.959 204.478C325.587 204.478 326.066 204.632 326.397 204.94C326.733 205.248 326.902 205.707 326.902 206.318V209.056H326.123V208.457C325.986 208.668 325.789 208.831 325.533 208.945C325.281 209.053 324.982 209.107 324.634 209.107C324.126 209.107 323.718 208.985 323.41 208.739C323.108 208.494 322.957 208.172 322.957 207.772C322.957 207.373 323.102 207.054 323.393 206.814C323.684 206.569 324.146 206.446 324.779 206.446H326.08V206.284C326.08 205.93 325.977 205.659 325.772 205.471C325.567 205.282 325.264 205.188 324.865 205.188C324.597 205.188 324.335 205.234 324.078 205.325C323.821 205.411 323.604 205.528 323.427 205.676L323.085 205.06C323.319 204.872 323.599 204.729 323.924 204.632C324.249 204.529 324.594 204.478 324.959 204.478ZM324.771 208.474C325.085 208.474 325.356 208.406 325.584 208.269C325.812 208.126 325.977 207.927 326.08 207.67V207.037H324.814C324.118 207.037 323.77 207.27 323.77 207.738C323.77 207.966 323.858 208.146 324.035 208.277C324.212 208.409 324.457 208.474 324.771 208.474ZM328.422 202.707H329.243V209.056H328.422V202.707ZM333.23 203.066H334.085V209.056H333.23V203.066ZM338.18 204.478C338.757 204.478 339.213 204.646 339.549 204.983C339.892 205.314 340.063 205.802 340.063 206.446V209.056H339.241V206.54C339.241 206.101 339.136 205.77 338.925 205.548C338.714 205.325 338.411 205.214 338.018 205.214C337.573 205.214 337.222 205.345 336.965 205.608C336.709 205.864 336.58 206.235 336.58 206.72V209.056H335.759V204.521H336.546V205.205C336.711 204.972 336.934 204.792 337.213 204.666C337.499 204.541 337.821 204.478 338.18 204.478ZM343.585 209.107C343.123 209.107 342.709 209.008 342.344 208.808C341.985 208.608 341.702 208.334 341.497 207.986C341.292 207.633 341.189 207.233 341.189 206.788C341.189 206.343 341.292 205.947 341.497 205.599C341.702 205.245 341.985 204.972 342.344 204.778C342.709 204.578 343.123 204.478 343.585 204.478C343.996 204.478 344.361 204.561 344.68 204.726C345.005 204.892 345.256 205.131 345.433 205.445L344.809 205.847C344.666 205.63 344.489 205.468 344.278 205.359C344.067 205.251 343.833 205.197 343.576 205.197C343.28 205.197 343.012 205.262 342.772 205.394C342.538 205.525 342.353 205.713 342.216 205.958C342.085 206.198 342.019 206.475 342.019 206.788C342.019 207.108 342.085 207.39 342.216 207.636C342.353 207.875 342.538 208.061 342.772 208.192C343.012 208.323 343.28 208.389 343.576 208.389C343.833 208.389 344.067 208.334 344.278 208.226C344.489 208.118 344.666 207.955 344.809 207.738L345.433 208.132C345.256 208.446 345.005 208.688 344.68 208.859C344.361 209.025 343.996 209.107 343.585 209.107ZM348.372 209.107C347.922 209.107 347.517 209.008 347.157 208.808C346.798 208.608 346.515 208.334 346.31 207.986C346.11 207.633 346.011 207.233 346.011 206.788C346.011 206.343 346.11 205.947 346.31 205.599C346.515 205.245 346.798 204.972 347.157 204.778C347.517 204.578 347.922 204.478 348.372 204.478C348.823 204.478 349.225 204.578 349.579 204.778C349.938 204.972 350.218 205.245 350.417 205.599C350.623 205.947 350.725 206.343 350.725 206.788C350.725 207.233 350.623 207.633 350.417 207.986C350.218 208.334 349.938 208.608 349.579 208.808C349.225 209.008 348.823 209.107 348.372 209.107ZM348.372 208.389C348.663 208.389 348.923 208.323 349.151 208.192C349.385 208.055 349.567 207.867 349.699 207.627C349.83 207.382 349.895 207.102 349.895 206.788C349.895 206.475 349.83 206.198 349.699 205.958C349.567 205.713 349.385 205.525 349.151 205.394C348.923 205.262 348.663 205.197 348.372 205.197C348.081 205.197 347.819 205.262 347.585 205.394C347.357 205.525 347.174 205.713 347.037 205.958C346.906 206.198 346.841 206.475 346.841 206.788C346.841 207.102 346.906 207.382 347.037 207.627C347.174 207.867 347.357 208.055 347.585 208.192C347.819 208.323 348.081 208.389 348.372 208.389ZM357.535 204.478C358.105 204.478 358.556 204.643 358.887 204.974C359.223 205.305 359.392 205.796 359.392 206.446V209.056H358.57V206.54C358.57 206.101 358.467 205.77 358.262 205.548C358.062 205.325 357.774 205.214 357.398 205.214C356.981 205.214 356.651 205.345 356.405 205.608C356.16 205.864 356.037 206.235 356.037 206.72V209.056H355.216V206.54C355.216 206.101 355.113 205.77 354.908 205.548C354.708 205.325 354.42 205.214 354.044 205.214C353.627 205.214 353.296 205.345 353.051 205.608C352.806 205.864 352.683 206.235 352.683 206.72V209.056H351.862V204.521H352.649V205.197C352.814 204.963 353.031 204.786 353.299 204.666C353.567 204.541 353.872 204.478 354.215 204.478C354.568 204.478 354.882 204.549 355.156 204.692C355.43 204.835 355.641 205.043 355.789 205.317C355.96 205.054 356.197 204.849 356.499 204.701C356.807 204.552 357.153 204.478 357.535 204.478ZM365.027 206.814C365.027 206.877 365.021 206.96 365.01 207.062H361.33C361.382 207.462 361.556 207.784 361.852 208.029C362.155 208.269 362.528 208.389 362.973 208.389C363.515 208.389 363.952 208.206 364.283 207.841L364.736 208.371C364.531 208.611 364.274 208.794 363.966 208.919C363.664 209.045 363.324 209.107 362.948 209.107C362.468 209.107 362.043 209.01 361.673 208.816C361.302 208.617 361.014 208.34 360.808 207.986C360.609 207.633 360.509 207.233 360.509 206.788C360.509 206.349 360.606 205.953 360.8 205.599C361 205.245 361.27 204.972 361.613 204.778C361.961 204.578 362.352 204.478 362.785 204.478C363.219 204.478 363.604 204.578 363.94 204.778C364.283 204.972 364.548 205.245 364.736 205.599C364.93 205.953 365.027 206.358 365.027 206.814ZM362.785 205.171C362.391 205.171 362.061 205.291 361.792 205.531C361.53 205.77 361.376 206.084 361.33 206.472H364.24C364.194 206.09 364.037 205.779 363.769 205.539C363.507 205.294 363.179 205.171 362.785 205.171Z" fill="#546E7A"/>
<path d="M47.336 191.104V195.056H45.256V191.136L40.856 183.856H43.08L46.36 189.312L49.672 183.856H51.72L47.336 191.104ZM55.777 195.168C54.913 195.168 54.1343 194.981 53.441 194.608C52.7477 194.235 52.2037 193.717 51.809 193.056C51.425 192.384 51.233 191.627 51.233 190.784C51.233 189.941 51.425 189.189 51.809 188.528C52.2037 187.867 52.7477 187.349 53.441 186.976C54.1343 186.603 54.913 186.416 55.777 186.416C56.6517 186.416 57.4357 186.603 58.129 186.976C58.8223 187.349 59.361 187.867 59.745 188.528C60.1397 189.189 60.337 189.941 60.337 190.784C60.337 191.627 60.1397 192.384 59.745 193.056C59.361 193.717 58.8223 194.235 58.129 194.608C57.4357 194.981 56.6517 195.168 55.777 195.168ZM55.777 193.456C56.513 193.456 57.121 193.211 57.601 192.72C58.081 192.229 58.321 191.584 58.321 190.784C58.321 189.984 58.081 189.339 57.601 188.848C57.121 188.357 56.513 188.112 55.777 188.112C55.041 188.112 54.433 188.357 53.953 188.848C53.4837 189.339 53.249 189.984 53.249 190.784C53.249 191.584 53.4837 192.229 53.953 192.72C54.433 193.211 55.041 193.456 55.777 193.456ZM70.5215 186.512V195.056H68.6175V193.968C68.2975 194.352 67.8975 194.651 67.4175 194.864C66.9375 195.067 66.4202 195.168 65.8655 195.168C64.7242 195.168 63.8228 194.853 63.1615 194.224C62.5108 193.584 62.1855 192.64 62.1855 191.392V186.512H64.1855V191.12C64.1855 191.888 64.3562 192.464 64.6975 192.848C65.0495 193.221 65.5455 193.408 66.1855 193.408C66.9002 193.408 67.4655 193.189 67.8815 192.752C68.3082 192.304 68.5215 191.664 68.5215 190.832V186.512H70.5215ZM75.0441 187.76C75.6201 186.864 76.6335 186.416 78.0841 186.416V188.32C77.9135 188.288 77.7588 188.272 77.6201 188.272C76.8415 188.272 76.2335 188.501 75.7961 188.96C75.3588 189.408 75.1401 190.059 75.1401 190.912V195.056H73.1401V186.512H75.0441V187.76ZM84.4728 183.856H86.5528V195.056H84.4728V183.856ZM94.2381 186.416C95.3155 186.416 96.1795 186.731 96.8301 187.36C97.4808 187.989 97.8061 188.923 97.8061 190.16V195.056H95.8061V190.416C95.8061 189.669 95.6301 189.109 95.2781 188.736C94.9261 188.352 94.4248 188.16 93.7741 188.16C93.0381 188.16 92.4568 188.384 92.0301 188.832C91.6035 189.269 91.3901 189.904 91.3901 190.736V195.056H89.3901V186.512H91.2941V187.616C91.6248 187.221 92.0408 186.923 92.5421 186.72C93.0435 186.517 93.6088 186.416 94.2381 186.416ZM104.341 195.168C103.456 195.168 102.661 194.981 101.957 194.608C101.253 194.235 100.704 193.717 100.309 193.056C99.9147 192.384 99.7174 191.627 99.7174 190.784C99.7174 189.941 99.9147 189.189 100.309 188.528C100.704 187.867 101.248 187.349 101.941 186.976C102.645 186.603 103.445 186.416 104.341 186.416C105.184 186.416 105.92 186.587 106.549 186.928C107.189 187.269 107.669 187.76 107.989 188.4L106.453 189.296C106.208 188.901 105.899 188.608 105.525 188.416C105.163 188.213 104.763 188.112 104.325 188.112C103.579 188.112 102.96 188.357 102.469 188.848C101.979 189.328 101.733 189.973 101.733 190.784C101.733 191.595 101.973 192.245 102.453 192.736C102.944 193.216 103.568 193.456 104.325 193.456C104.763 193.456 105.163 193.36 105.525 193.168C105.899 192.965 106.208 192.667 106.453 192.272L107.989 193.168C107.659 193.808 107.173 194.304 106.533 194.656C105.904 194.997 105.173 195.168 104.341 195.168ZM113.433 195.168C112.569 195.168 111.791 194.981 111.097 194.608C110.404 194.235 109.86 193.717 109.465 193.056C109.081 192.384 108.889 191.627 108.889 190.784C108.889 189.941 109.081 189.189 109.465 188.528C109.86 187.867 110.404 187.349 111.097 186.976C111.791 186.603 112.569 186.416 113.433 186.416C114.308 186.416 115.092 186.603 115.785 186.976C116.479 187.349 117.017 187.867 117.401 188.528C117.796 189.189 117.993 189.941 117.993 190.784C117.993 191.627 117.796 192.384 117.401 193.056C117.017 193.717 116.479 194.235 115.785 194.608C115.092 194.981 114.308 195.168 113.433 195.168ZM113.433 193.456C114.169 193.456 114.777 193.211 115.257 192.72C115.737 192.229 115.977 191.584 115.977 190.784C115.977 189.984 115.737 189.339 115.257 188.848C114.777 188.357 114.169 188.112 113.433 188.112C112.697 188.112 112.089 188.357 111.609 188.848C111.14 189.339 110.905 189.984 110.905 190.784C110.905 191.584 111.14 192.229 111.609 192.72C112.089 193.211 112.697 193.456 113.433 193.456ZM130.69 186.416C131.767 186.416 132.62 186.731 133.25 187.36C133.879 187.979 134.194 188.912 134.194 190.16V195.056H132.194V190.416C132.194 189.669 132.028 189.109 131.698 188.736C131.367 188.352 130.892 188.16 130.274 188.16C129.602 188.16 129.063 188.384 128.658 188.832C128.252 189.269 128.05 189.899 128.05 190.72V195.056H126.05V190.416C126.05 189.669 125.884 189.109 125.554 188.736C125.223 188.352 124.748 188.16 124.13 188.16C123.447 188.16 122.903 188.379 122.498 188.816C122.103 189.253 121.906 189.888 121.906 190.72V195.056H119.906V186.512H121.81V187.6C122.13 187.216 122.53 186.923 123.01 186.72C123.49 186.517 124.023 186.416 124.61 186.416C125.25 186.416 125.815 186.539 126.306 186.784C126.807 187.019 127.202 187.371 127.49 187.84C127.842 187.392 128.295 187.045 128.85 186.8C129.404 186.544 130.018 186.416 130.69 186.416ZM144.86 190.832C144.86 190.971 144.849 191.168 144.828 191.424H138.124C138.241 192.053 138.545 192.555 139.036 192.928C139.537 193.291 140.156 193.472 140.892 193.472C141.83 193.472 142.604 193.163 143.212 192.544L144.284 193.776C143.9 194.235 143.414 194.581 142.828 194.816C142.241 195.051 141.58 195.168 140.844 195.168C139.905 195.168 139.078 194.981 138.364 194.608C137.649 194.235 137.094 193.717 136.7 193.056C136.316 192.384 136.124 191.627 136.124 190.784C136.124 189.952 136.31 189.205 136.684 188.544C137.068 187.872 137.596 187.349 138.268 186.976C138.94 186.603 139.697 186.416 140.54 186.416C141.372 186.416 142.113 186.603 142.764 186.976C143.425 187.339 143.937 187.856 144.3 188.528C144.673 189.189 144.86 189.957 144.86 190.832ZM140.54 188.016C139.9 188.016 139.356 188.208 138.908 188.592C138.47 188.965 138.204 189.467 138.108 190.096H142.956C142.87 189.477 142.609 188.976 142.172 188.592C141.734 188.208 141.19 188.016 140.54 188.016ZM149.421 195.168C148.727 195.168 148.05 195.077 147.389 194.896C146.727 194.715 146.199 194.485 145.805 194.208L146.573 192.688C146.957 192.944 147.415 193.152 147.949 193.312C148.493 193.461 149.026 193.536 149.549 193.536C150.743 193.536 151.341 193.221 151.341 192.592C151.341 192.293 151.186 192.085 150.877 191.968C150.578 191.851 150.093 191.739 149.421 191.632C148.717 191.525 148.141 191.403 147.693 191.264C147.255 191.125 146.871 190.885 146.541 190.544C146.221 190.192 146.061 189.707 146.061 189.088C146.061 188.277 146.397 187.632 147.069 187.152C147.751 186.661 148.669 186.416 149.821 186.416C150.407 186.416 150.994 186.485 151.581 186.624C152.167 186.752 152.647 186.928 153.021 187.152L152.253 188.672C151.527 188.245 150.711 188.032 149.805 188.032C149.218 188.032 148.77 188.123 148.461 188.304C148.162 188.475 148.013 188.704 148.013 188.992C148.013 189.312 148.173 189.541 148.493 189.68C148.823 189.808 149.33 189.931 150.013 190.048C150.695 190.155 151.255 190.277 151.693 190.416C152.13 190.555 152.503 190.789 152.813 191.12C153.133 191.451 153.293 191.92 153.293 192.528C153.293 193.328 152.946 193.968 152.253 194.448C151.559 194.928 150.615 195.168 149.421 195.168Z" fill="#263238"/>
<path d="M9 234.056H396" stroke="#DDDDDD"/>
<path d="M53.4114 270.331V271.016C53.4114 271.38 53.2661 271.728 53.0075 271.985C52.7489 272.242 52.3981 272.386 52.0324 272.386H42.379C41.6137 272.386 41 271.77 41 271.016V261.426C41 261.063 41.1453 260.714 41.4039 260.457C41.6625 260.2 42.0133 260.056 42.379 260.056H52.0324C52.3981 260.056 52.7489 260.2 53.0075 260.457C53.2661 260.714 53.4114 261.063 53.4114 261.426V262.111H47.2057C46.4403 262.111 45.8267 262.728 45.8267 263.481V268.961C45.8267 269.325 45.9719 269.673 46.2306 269.93C46.4892 270.187 46.84 270.331 47.2057 270.331H53.4114ZM47.2057 268.961H54.1009V263.481H47.2057V268.961ZM49.9638 267.249C49.6895 267.249 49.4264 267.14 49.2324 266.948C49.0385 266.755 48.9295 266.494 48.9295 266.221C48.9295 265.949 49.0385 265.687 49.2324 265.495C49.4264 265.302 49.6895 265.194 49.9638 265.194C50.2381 265.194 50.5012 265.302 50.6951 265.495C50.8891 265.687 50.9981 265.949 50.9981 266.221C50.9981 266.494 50.8891 266.755 50.6951 266.948C50.5012 267.14 50.2381 267.249 49.9638 267.249Z" fill="#455A64"/>
<path d="M41 319.469V308.68H44.0826V319.469H41ZM46.3945 319.469V304.056H49.4771V319.469H46.3945ZM51.789 319.469V313.304H54.8716V319.469H51.789Z" fill="#455A64"/>
<path d="M47.9358 364.845H43.3119V361.762H47.9358V364.845ZM54.8716 361.762V360.221L54.1009 356.368H41.7706L41 360.221V361.762H41.7706V366.386H49.4771V361.762H52.5596V366.386H54.1009V361.762H54.8716ZM54.1009 354.056H41.7706V355.597H54.1009V354.056Z" fill="#455A64"/>
<defs>
<filter id="filter0_d" x="1.31579" y="0.69896" width="404.368" height="142.368" filterUnits="userSpaceOnUse" color-interpolation-filters="sRGB">
<feFlood flood-opacity="0" result="BackgroundImageFix"/>
<feColorMatrix in="SourceAlpha" type="matrix" values="0 0 0 0 0 0 0 0 0 0 0 0 0 0 0 0 0 0 127 0"/>
<feOffset dy="3.32714"/>
<feGaussianBlur stdDeviation="4.3421"/>
<feColorMatrix type="matrix" values="0 0 0 0 0.14902 0 0 0 0 0.196078 0 0 0 0 0.219608 0 0 0 0.08 0"/>
<feBlend mode="normal" in2="BackgroundImageFix" result="effect1_dropShadow"/>
<feBlend mode="normal" in="SourceGraphic" in2="effect1_dropShadow" result="shape"/>
</filter>
<filter id="filter1_d" x="0.31579" y="141.699" width="404.368" height="270.368" filterUnits="userSpaceOnUse" color-interpolation-filters="sRGB">
<feFlood flood-opacity="0" result="BackgroundImageFix"/>
<feColorMatrix in="SourceAlpha" type="matrix" values="0 0 0 0 0 0 0 0 0 0 0 0 0 0 0 0 0 0 127 0"/>
<feOffset dy="3.32714"/>
<feGaussianBlur stdDeviation="4.3421"/>
<feColorMatrix type="matrix" values="0 0 0 0 0.14902 0 0 0 0 0.196078 0 0 0 0 0.219608 0 0 0 0.08 0"/>
<feBlend mode="normal" in2="BackgroundImageFix" result="effect1_dropShadow"/>
<feBlend mode="normal" in="SourceGraphic" in2="effect1_dropShadow" result="shape"/>
</filter>
</defs>
</svg>
